<?xml version="1.0" encoding="UTF-8" standalone="no"?>
<svg
   xml:space="preserve"
   style="shape-rendering:geometricPrecision;text-rendering:geometricPrecision;image-rendering:optimizeQuality;"
   viewBox="0 0 6.82666 8.533325000000001"
   x="0px"
   y="0px"
   fill-rule="evenodd"
   clip-rule="evenodd"
   version="1.1"
   id="svg406"
   sodipodi:docname="noun-favorite-3001731.svg"
   inkscape:version="1.2.2 (b0a8486, 2022-12-01)"
   xmlns:inkscape="http://www.inkscape.org/namespaces/inkscape"
   xmlns:sodipodi="http://sodipodi.sourceforge.net/DTD/sodipodi-0.dtd"
   xmlns="http://www.w3.org/2000/svg"
   xmlns:svg="http://www.w3.org/2000/svg"><sodipodi:namedview
     id="namedview408"
     pagecolor="#ffffff"
     bordercolor="#000000"
     borderopacity="0.25"
     inkscape:showpageshadow="2"
     inkscape:pageopacity="0.0"
     inkscape:pagecheckerboard="0"
     inkscape:deskcolor="#d1d1d1"
     showgrid="false"
     inkscape:zoom="27.656276"
     inkscape:cx="3.3988668"
     inkscape:cy="4.2666626"
     inkscape:window-width="1440"
     inkscape:window-height="900"
     inkscape:window-x="0"
     inkscape:window-y="0"
     inkscape:window-maximized="0"
     inkscape:current-layer="g400" /><defs
     id="defs394"><style
       type="text/css"
       id="style392">
   
    .fil0 {fill:none}
    .fil1 {fill:black}
   
  </style></defs><rect
     class="fil0"
     width="6.82666"
     height="6.82666"
     id="rect396" /><g
     id="g400"><path
       class="fil1"
       d="M3.41333 1.56287c0.10113,-0.163528 0.22063,-0.317575 0.370488,-0.437457 0.239335,-0.191461 0.511264,-0.261717 0.815307,-0.261717 0.362945,0 0.707992,0.14315 0.964567,0.399724 0.256575,0.256571 0.39972,0.601626 0.39972,0.964567 0,0.69424 -0.372134,1.34572 -0.777055,1.88561 -0.237409,0.316547 -0.501059,0.615291 -0.771488,0.90387 -0.261937,0.279504 -0.53237,0.551083 -0.803201,0.821984l7.87402e-006 3.93701e-006 -0.072126 0.072126c-0.000401575,0.000401575 -0.000807087,0.00080315 -0.0012126,0.00120079l-0.0709173 0.0709134 -0.0225591 -0.0225591c-0.0560591,0.0101063 -0.115976,-0.00662992 -0.15872,-0.0505394l-0.000413386 -0.000425197c-0.290433,-0.298354 -0.585079,-0.592768 -0.870854,-0.895618 -0.27128,-0.287492 -0.537256,-0.584539 -0.774567,-0.900957 -0.404921,-0.539898 -0.777051,-1.19137 -0.777051,-1.88561 0,-0.362941 0.143146,-0.707992 0.39972,-0.964567 0.256575,-0.256575 0.601626,-0.399724 0.964567,-0.399724 0.304039,0 0.575969,0.0702559 0.815299,0.261717 0.149858,0.119886 0.269358,0.273929 0.370488,0.437457zm-0.185583 0.39665c-0.102807,-0.199799 -0.233713,-0.416937 -0.407378,-0.555866 -0.173736,-0.138984 -0.373287,-0.182945 -0.592827,-0.182945 -0.268122,0 -0.522594,0.105602 -0.712134,0.295146 -0.189543,0.189539 -0.295146,0.444012 -0.295146,0.712134 0,0.608555 0.351142,1.19972 0.705173,1.67176 0.222496,0.296661 0.469654,0.577083 0.722654,0.847949 0.249437,0.267051 0.506972,0.526642 0.76524,0.785181 0.258268,-0.258539 0.515807,-0.51813 0.76524,-0.785181 0.253,-0.270866 0.500161,-0.551287 0.722657,-0.847949 0.354035,-0.472047 0.705177,-1.06321 0.705177,-1.67176 0,-0.268122 -0.105602,-0.522594 -0.295146,-0.712134 -0.189539,-0.189539 -0.444012,-0.295146 -0.712134,-0.295146 -0.219539,0 -0.419098,0.0439606 -0.592835,0.182945 -0.192748,0.154197 -0.329193,0.374339 -0.428579,0.59735 -0.0173504,0.038937 -0.0462087,0.0710276 -0.0845551,0.0901969 -0.0881339,0.0440669 -0.195429,0.00829921 -0.239488,-0.0798386l-0.0259213 -0.0518425z"
       id="path398"
       style="fill:#144d93;fill-opacity:1" /></g><text
     x="0"
     y="21.82666"
     fill="#000000"
     font-size="5px"
     font-weight="bold"
     font-family="'Helvetica Neue', Helvetica, Arial-Unicode, Arial, Sans-serif"
     id="text402">Created by Grafix Point</text><text
     x="0"
     y="26.82666"
     fill="#000000"
     font-size="5px"
     font-weight="bold"
     font-family="'Helvetica Neue', Helvetica, Arial-Unicode, Arial, Sans-serif"
     id="text404">from the Noun Project</text></svg>
