<?xml version="1.0" encoding="UTF-8"?>
<svg width="19.2763792px" height="19.2763792px" viewBox="0 0 19.2763792 19.2763792" version="1.1" xmlns="http://www.w3.org/2000/svg" xmlns:xlink="http://www.w3.org/1999/xlink">
    <title>Group 5</title>
    <g id="Player-audio" stroke="none" stroke-width="1" fill="none" fill-rule="evenodd">
        <g id="A-bientot-de-te-revoir_1" transform="translate(-326.307692, -758.307692)" fill="#FFFFFF" fill-rule="nonzero">
            <g id="Group-6" transform="translate(322.000000, 754.000000)">
                <g id="Group-5" transform="translate(4.307692, 4.307692)">
                    <g id="noun-arrow-1920819" transform="translate(13.945882, 5.330497) rotate(-45.000000) translate(-13.945882, -5.330497) translate(9.638190, 2.099728)">
                        <path d="M8.45248869,2.88754923 L5.69230769,0.141789245 C5.50226244,-0.0472630817 5.19457014,-0.0472630817 5.01357466,0.141789245 C4.82352941,0.330841572 4.82352941,0.636926292 5.01357466,0.816976127 L6.95927602,2.75251186 L0.479638009,2.75251186 C0.21719457,2.75251186 4.08106597e-14,2.96857166 4.08106597e-14,3.22964392 C4.08106597e-14,3.49071618 0.21719457,3.70677598 0.479638009,3.70677598 L6.95022624,3.70677598 L5.01357466,5.64231171 C4.82352941,5.83136404 4.82352941,6.13744876 5.01357466,6.31749859 C5.1040724,6.40752351 5.23076923,6.46153846 5.35746606,6.46153846 C5.4841629,6.46153846 5.60180995,6.416526 5.70135747,6.31749859 L8.47058824,3.56273611 C8.56108597,3.4727112 8.61538462,3.34667631 8.61538462,3.22064143 C8.59728507,3.10360903 8.54298643,2.97757415 8.45248869,2.88754923 Z" id="Path"></path>
                    </g>
                    <g id="noun-arrow-1920819-copy" transform="translate(5.330497, 13.945882) rotate(135.000000) translate(-5.330497, -13.945882) translate(1.022805, 10.715113)">
                        <path d="M8.45248869,2.88754923 L5.69230769,0.141789245 C5.50226244,-0.0472630817 5.19457014,-0.0472630817 5.01357466,0.141789245 C4.82352941,0.330841572 4.82352941,0.636926292 5.01357466,0.816976127 L6.95927602,2.75251186 L0.479638009,2.75251186 C0.21719457,2.75251186 -3.06079948e-14,2.96857166 -3.06079948e-14,3.22964392 C-3.06079948e-14,3.49071618 0.21719457,3.70677598 0.479638009,3.70677598 L6.95022624,3.70677598 L5.01357466,5.64231171 C4.82352941,5.83136404 4.82352941,6.13744876 5.01357466,6.31749859 C5.1040724,6.40752351 5.23076923,6.46153846 5.35746606,6.46153846 C5.4841629,6.46153846 5.60180995,6.416526 5.70135747,6.31749859 L8.47058824,3.56273611 C8.56108597,3.4727112 8.61538462,3.34667631 8.61538462,3.22064143 C8.59728507,3.10360903 8.54298643,2.97757415 8.45248869,2.88754923 Z" id="Path"></path>
                    </g>
                </g>
            </g>
        </g>
    </g>
</svg>