<?xml version="1.0" encoding="UTF-8" standalone="no"?>
<svg
   data-name="Layer 1"
   viewBox="0 0 32 40"
   x="0px"
   y="0px"
   version="1.1"
   id="svg10"
   sodipodi:docname="noun-homepage-2050863 (1).svg"
   inkscape:version="1.2.2 (b0a8486, 2022-12-01)"
   xmlns:inkscape="http://www.inkscape.org/namespaces/inkscape"
   xmlns:sodipodi="http://sodipodi.sourceforge.net/DTD/sodipodi-0.dtd"
   xmlns="http://www.w3.org/2000/svg"
   xmlns:svg="http://www.w3.org/2000/svg">
  <defs
     id="defs14" />
  <sodipodi:namedview
     id="namedview12"
     pagecolor="#ffffff"
     bordercolor="#000000"
     borderopacity="0.25"
     inkscape:showpageshadow="2"
     inkscape:pageopacity="0.0"
     inkscape:pagecheckerboard="0"
     inkscape:deskcolor="#d1d1d1"
     showgrid="false"
     inkscape:zoom="11.892233"
     inkscape:cx="21.148257"
     inkscape:cy="26.571965"
     inkscape:window-width="1440"
     inkscape:window-height="900"
     inkscape:window-x="0"
     inkscape:window-y="0"
     inkscape:window-maximized="0"
     inkscape:current-layer="svg10" />
  <title
     id="title2">UI</title>
  <path
     d="m 31.093616,16.675442 -2.695487,-3.002101 v 0 L 16.794147,1.6349188 a 0.95584692,1.0007002 0 0 0 -0.133819,-0.090062 0.95584692,1.0007002 0 0 0 -0.18161,-0.120084 0.95584692,1.0007002 0 0 0 -0.152937,0 0.56394968,0.59041309 0 0 0 -0.411013,0 0.95584692,1.0007002 0 0 0 -0.152936,0 0.95584692,1.0007002 0 0 0 -0.18161,0.120084 0.95584692,1.0007002 0 0 0 -0.133819,0.090062 L 3.8519805,13.64332 v 0 0 l -2.6763713,3.002101 a 0.95652777,1.001413 0 0 0 1.3764196,1.390973 L 3.574785,16.885589 v 15.480832 a 0.95584692,1.0007002 0 0 0 0.9558468,1.0007 h 8.7268822 a 0.95584692,1.0007002 0 0 0 0.955846,-1.0007 V 21.358719 h 3.823387 v 11.007702 a 0.95584692,1.0007002 0 0 0 0.955848,1.0007 h 8.726882 a 0.95584692,1.0007002 0 0 0 0.955847,-1.0007 V 16.895596 l 1.022756,1.150806 a 0.95686201,1.0017629 0 1 0 1.395536,-1.37096 z M 19.948442,31.36572 V 20.358018 a 0.95584692,1.0007002 0 0 0 -0.955847,-1.000699 h -5.735081 a 0.95584692,1.0007002 0 0 0 -0.955847,1.000699 V 31.36572 H 5.4864788 V 14.774111 L 16.125054,3.7564031 26.76363,14.764105 V 31.36572 Z"
     id="path4"
     style="fill:#144d93;fill-opacity:1;stroke:#144d93;stroke-width:0.978017;stroke-opacity:1" />
</svg>
