<?xml version="1.0" encoding="UTF-8" standalone="no"?>
<svg
   width="21.999998"
   height="22.601316"
   viewBox="0 0 21.999998 22.601316"
   version="1.1"
   id="svg2407"
   sodipodi:docname="podcast_selected.svg"
   xmlns:inkscape="http://www.inkscape.org/namespaces/inkscape"
   xmlns:sodipodi="http://sodipodi.sourceforge.net/DTD/sodipodi-0.dtd"
   xmlns="http://www.w3.org/2000/svg"
   xmlns:svg="http://www.w3.org/2000/svg">
  <sodipodi:namedview
     id="namedview1453"
     pagecolor="#ffffff"
     bordercolor="#000000"
     borderopacity="0.25"
     inkscape:showpageshadow="2"
     inkscape:pageopacity="0.0"
     inkscape:pagecheckerboard="0"
     inkscape:deskcolor="#d1d1d1"
     showgrid="false" />
  <defs
     id="defs2411" />
  <title
     id="title2399">path398</title>
  <g
     id="g14"
     style="fill:#648ab6;fill-opacity:1;stroke:#648ab6;stroke-opacity:1"
     transform="matrix(0.32498372,0,0,0.32498372,-1.8940695,-4.6235434)"
     inkscape:export-filename="tab_bar_icon_podcast_selected.svg"
     inkscape:export-xdpi="96"
     inkscape:export-ydpi="96">
    <g
       id="g12"
       style="fill:#648ab6;fill-opacity:1;stroke:#648ab6;stroke-opacity:1">
      <g
         id="g10"
         style="fill:#648ab6;fill-opacity:1;stroke:#648ab6;stroke-opacity:1">
        <path
           d="M 70.697,39.701 C 67.79,27.673 62.101,14.727 56.481,14.727 c -0.278,0 -0.556,0.033 -0.823,0.097 -1.225,0.296 -2.2,1.229 -2.916,2.744 -0.076,0.06 -0.159,0.106 -0.222,0.186 -3.146,4.022 -14.412,17.306 -27.265,20.412 l -9.82,2.534 c -0.039,0.009 -0.077,0.021 -0.115,0.033 -3.009,0.827 -5.549,2.72 -7.184,5.362 -1.71,2.766 -2.23,6.034 -1.463,9.205 0.767,3.17 2.722,5.841 5.506,7.52 2.771,1.672 6.048,2.169 9.225,1.402 L 23.44,63.73 c 0,0 10e-4,0 0.002,0 h 0.001 l 2.449,-0.592 8.126,16.697 c 1.058,2.172 3.24,3.438 5.509,3.438 0.897,0 1.808,-0.197 2.667,-0.615 3.031,-1.477 4.297,-5.144 2.821,-8.176 l -6.57,-13.5 c 11.731,-0.099 23.711,5.353 26.449,6.681 0.98,0.73 1.973,1.135 2.964,1.135 0.278,0 0.556,-0.033 0.823,-0.098 2.594,-0.627 4.085,-4.076 4.312,-9.975 0.204,-5.297 -0.611,-12.053 -2.296,-19.024 z M 20.792,61.695 C 18.287,62.302 15.704,61.91 13.521,60.593 11.337,59.276 9.801,57.178 9.2,54.688 8.598,52.198 9.005,49.63 10.348,47.46 11.671,45.319 13.754,43.8 16.22,43.179 l 0.866,-0.21 4.481,18.538 z M 41.056,80.32 c -1.742,0.848 -3.853,0.12 -4.7,-1.623 l -2.949,-6.059 6.409,-2.895 2.861,5.878 c 0.849,1.742 0.121,3.85 -1.621,4.699 z m -2.378,-12.916 -6.409,2.895 -3.789,-7.786 3.01,-0.728 c 1.351,-0.326 2.733,-0.541 4.129,-0.667 z m -7.8,-8.146 -6.784,1.639 -4.481,-18.539 6.255,-1.515 c 10.808,-2.612 20.417,-11.869 25.586,-17.701 -0.046,0.531 -0.084,1.079 -0.107,1.657 -0.107,2.758 0.069,5.917 0.495,9.291 0.006,0.048 -0.006,0.094 0.005,0.143 0.004,0.016 0.016,0.027 0.02,0.043 0.392,3.051 0.984,6.273 1.776,9.548 0.776,3.211 1.752,6.486 2.87,9.564 0.006,0.061 -0.008,0.119 0.007,0.18 0.043,0.177 0.127,0.328 0.23,0.465 1.283,3.438 2.746,6.592 4.308,9.1 C 54.066,60.36 41.753,56.628 30.878,59.258 Z M 54.622,35.237 c 1.959,0.539 4.284,3.213 5.269,7.284 0.977,4.046 0.149,7.465 -1.333,8.859 -0.85,-2.446 -1.662,-5.163 -2.388,-8.168 -0.659,-2.726 -1.173,-5.407 -1.548,-7.975 z m 15.774,23.388 c -0.189,4.871 -1.304,7.301 -2.326,7.548 -0.068,0.017 -0.138,0.024 -0.212,0.024 -0.23,0 -0.486,-0.071 -0.764,-0.208 -0.109,-0.137 -0.245,-0.255 -0.41,-0.341 -0.054,-0.028 -0.194,-0.101 -0.404,-0.205 -1.881,-1.551 -4.42,-5.476 -6.779,-11.51 2.93,-1.8 4.207,-6.688 2.917,-12.024 -1.297,-5.364 -4.683,-9.147 -8.139,-9.372 -0.3,-2.763 -0.423,-5.352 -0.335,-7.639 0.188,-4.871 1.303,-7.3 2.325,-7.547 0.068,-0.017 0.138,-0.024 0.212,-0.024 2.507,0 8.112,8.185 11.689,22.985 1.631,6.745 2.421,13.248 2.226,18.313 z"
           id="path2"
           style="fill:#648ab6;fill-opacity:1;stroke:#648ab6;stroke-opacity:1" />
      </g>
    </g>
  </g>
</svg>
