<?xml version="1.0" encoding="UTF-8" standalone="no"?>
<svg
   version="1.1"
   x="0px"
   y="0px"
   viewBox="0 0 100 125"
   enable-background="new 0 0 100 100"
   xml:space="preserve"
   id="svg20"
   sodipodi:docname="podcast_select.svg"
   inkscape:version="1.2.2 (b0a8486, 2022-12-01)"
   xmlns:inkscape="http://www.inkscape.org/namespaces/inkscape"
   xmlns:sodipodi="http://sodipodi.sourceforge.net/DTD/sodipodi-0.dtd"
   xmlns="http://www.w3.org/2000/svg"
   xmlns:svg="http://www.w3.org/2000/svg"><defs
     id="defs24" /><sodipodi:namedview
     id="namedview22"
     pagecolor="#ffffff"
     bordercolor="#000000"
     borderopacity="0.25"
     inkscape:showpageshadow="2"
     inkscape:pageopacity="0.0"
     inkscape:pagecheckerboard="0"
     inkscape:deskcolor="#d1d1d1"
     showgrid="false"
     inkscape:zoom="3.7372994"
     inkscape:cx="48.56448"
     inkscape:cy="68.364874"
     inkscape:window-width="1440"
     inkscape:window-height="847"
     inkscape:window-x="0"
     inkscape:window-y="25"
     inkscape:window-maximized="0"
     inkscape:current-layer="g14" /><g
     id="g14"
     transform="translate(7.4758818,4.3042956)"
     style="stroke:#144d93;stroke-opacity:1"><g
       id="g12"
       style="stroke:#144d93;stroke-opacity:1"
       transform="matrix(1.4681918,0,0,1.4681918,-15.665024,-24.484389)"><g
         id="g10"
         style="stroke:#144d93;stroke-opacity:1"><path
           d="M 70.697,39.701 C 67.79,27.673 62.101,14.727 56.481,14.727 c -0.278,0 -0.556,0.033 -0.823,0.097 -1.225,0.296 -2.2,1.229 -2.916,2.744 -0.076,0.06 -0.159,0.106 -0.222,0.186 -3.146,4.022 -14.412,17.306 -27.265,20.412 l -9.82,2.534 c -0.039,0.009 -0.077,0.021 -0.115,0.033 -3.009,0.827 -5.549,2.72 -7.184,5.362 -1.71,2.766 -2.23,6.034 -1.463,9.205 0.767,3.17 2.722,5.841 5.506,7.52 2.771,1.672 6.048,2.169 9.225,1.402 L 23.44,63.73 c 0,0 10e-4,0 0.002,0 h 0.001 l 2.449,-0.592 8.126,16.697 c 1.058,2.172 3.24,3.438 5.509,3.438 0.897,0 1.808,-0.197 2.667,-0.615 3.031,-1.477 4.297,-5.144 2.821,-8.176 l -6.57,-13.5 c 11.731,-0.099 23.711,5.353 26.449,6.681 0.98,0.73 1.973,1.135 2.964,1.135 0.278,0 0.556,-0.033 0.823,-0.098 2.594,-0.627 4.085,-4.076 4.312,-9.975 0.204,-5.297 -0.611,-12.053 -2.296,-19.024 z M 20.792,61.695 C 18.287,62.302 15.704,61.91 13.521,60.593 11.337,59.276 9.801,57.178 9.2,54.688 8.598,52.198 9.005,49.63 10.348,47.46 11.671,45.319 13.754,43.8 16.22,43.179 l 0.866,-0.21 4.481,18.538 z M 41.056,80.32 c -1.742,0.848 -3.853,0.12 -4.7,-1.623 l -2.949,-6.059 6.409,-2.895 2.861,5.878 c 0.849,1.742 0.121,3.85 -1.621,4.699 z m -2.378,-12.916 -6.409,2.895 -3.789,-7.786 3.01,-0.728 c 1.351,-0.326 2.733,-0.541 4.129,-0.667 z m -7.8,-8.146 -6.784,1.639 -4.481,-18.539 6.255,-1.515 c 10.808,-2.612 20.417,-11.869 25.586,-17.701 -0.046,0.531 -0.084,1.079 -0.107,1.657 -0.107,2.758 0.069,5.917 0.495,9.291 0.006,0.048 -0.006,0.094 0.005,0.143 0.004,0.016 0.016,0.027 0.02,0.043 0.392,3.051 0.984,6.273 1.776,9.548 0.776,3.211 1.752,6.486 2.87,9.564 0.006,0.061 -0.008,0.119 0.007,0.18 0.043,0.177 0.127,0.328 0.23,0.465 1.283,3.438 2.746,6.592 4.308,9.1 C 54.066,60.36 41.753,56.628 30.878,59.258 Z M 54.622,35.237 c 1.959,0.539 4.284,3.213 5.269,7.284 0.977,4.046 0.149,7.465 -1.333,8.859 -0.85,-2.446 -1.662,-5.163 -2.388,-8.168 -0.659,-2.726 -1.173,-5.407 -1.548,-7.975 z m 15.774,23.388 c -0.189,4.871 -1.304,7.301 -2.326,7.548 -0.068,0.017 -0.138,0.024 -0.212,0.024 -0.23,0 -0.486,-0.071 -0.764,-0.208 -0.109,-0.137 -0.245,-0.255 -0.41,-0.341 -0.054,-0.028 -0.194,-0.101 -0.404,-0.205 -1.881,-1.551 -4.42,-5.476 -6.779,-11.51 2.93,-1.8 4.207,-6.688 2.917,-12.024 -1.297,-5.364 -4.683,-9.147 -8.139,-9.372 -0.3,-2.763 -0.423,-5.352 -0.335,-7.639 0.188,-4.871 1.303,-7.3 2.325,-7.547 0.068,-0.017 0.138,-0.024 0.212,-0.024 2.507,0 8.112,8.185 11.689,22.985 1.631,6.745 2.421,13.248 2.226,18.313 z"
           id="path2"
           style="fill:#144d93;fill-opacity:1;stroke:#144d93;stroke-opacity:1" /><path
           style="fill:#144d93;stroke:#144d93;stroke-width:0.261366;stroke-opacity:1"
           d="m 63.163974,64.928138 c -7.677049,-2.516732 -15.832887,-3.42545 -22.170097,-2.47018 -1.387978,0.209224 -3.960364,0.743138 -5.716414,1.186472 -1.75605,0.443335 -3.214007,0.771321 -3.239904,0.728859 -0.315786,-0.517774 -4.068702,-17.037056 -3.904492,-17.186478 0.123841,-0.112687 1.812965,-0.586943 3.753609,-1.053902 5.391557,-1.297318 9.036449,-2.878541 13.591042,-5.896052 3.435217,-2.275901 6.302039,-4.632731 9.792871,-8.050772 l 2.975108,-2.913071 0.133488,4.181859 c 0.15167,4.751558 0.809519,9.313248 2.11458,14.663089 1.47058,6.028352 3.766112,12.630361 5.759113,16.56336 0.436813,0.862009 0.551838,1.304518 0.334564,1.287106 -0.182112,-0.01458 -1.722672,-0.482725 -3.423468,-1.04029 z"
           id="path7697"
           transform="translate(-7.4758818,-4.3042956)" /><path
           style="fill:#144d93;stroke:#144d93;stroke-width:0.261366;stroke-opacity:1"
           d="m 44.715974,87.516769 c -2.235256,-0.820183 -2.952345,-1.894466 -7.307605,-10.947679 -2.209995,-4.593882 -4.091832,-8.432653 -4.181859,-8.5306 -0.09003,-0.09795 -1.339834,0.107649 -2.777348,0.456884 -5.693306,1.383155 -9.506194,0.553095 -13.139121,-2.860361 -6.213076,-5.837736 -4.555091,-16.267152 3.183141,-20.023282 0.875744,-0.425084 3.944557,-1.37115 6.819585,-2.102367 6.809973,-1.732009 8.877577,-2.414609 11.932418,-3.939378 6.948909,-3.468423 15.638088,-11.122345 21.065305,-18.555518 2.355973,-3.226764 5.160019,-3.089744 8.36026,0.408525 5.125765,5.603111 9.986026,19.215898 11.708495,32.793543 0.529366,4.172829 0.416511,11.840735 -0.206051,14.000041 -1.38143,4.79137 -4.129884,6.351334 -7.591637,4.308849 -1.428816,-0.843021 -6.19158,-2.758022 -9.619031,-3.867595 -5.507159,-1.782842 -12.1373,-3.050901 -15.031089,-2.874801 l -1.335153,0.08125 3.404771,7.015074 c 3.150178,6.490517 3.404334,7.125689 3.398908,8.494401 -0.01004,2.532986 -1.328198,4.678199 -3.590783,5.843767 -1.370554,0.706042 -3.623769,0.838426 -5.093206,0.299246 z m 3.875872,-3.345341 c 0.804115,-0.415823 1.590463,-1.811077 1.590463,-2.822026 0,-0.509588 -2.603439,-6.275002 -3.028622,-6.706996 -0.153495,-0.155952 -5.596462,2.365819 -5.596462,2.592886 0,0.338158 2.414843,5.333914 2.946462,6.095556 0.851633,1.220118 2.642245,1.588291 4.088159,0.84058 z M 43.023623,72.737146 c 1.349752,-0.601177 2.452404,-1.217358 2.450336,-1.369293 -0.0021,-0.151937 -0.575157,-1.464382 -1.273538,-2.916546 l -1.269782,-2.640297 -1.637718,0.223972 c -1.618458,0.221335 -4.391811,0.869848 -4.59688,1.074918 -0.05821,0.05821 0.623883,1.657647 1.51577,3.554301 1.163197,2.473614 1.725655,3.408531 1.989663,3.307223 0.202428,-0.07768 1.472396,-0.633105 2.822149,-1.234278 z m 32.670764,-2.760349 c 0.821719,-0.543652 1.489186,-2.95229 1.791487,-6.464812 0.198597,-2.307557 -0.233894,-8.160443 -0.917382,-12.414894 -1.889111,-11.758984 -6.77221,-24.277316 -10.938089,-28.040939 -1.757047,-1.587385 -2.508805,-1.205555 -3.252274,1.651883 -0.839066,3.224846 -0.777969,11.346098 0.08839,11.749349 2.264262,1.053909 3.042775,1.567575 4.1497,2.737983 3.11973,3.298654 4.79141,9.226819 3.855544,13.67265 -0.443126,2.105067 -1.510072,4.288996 -2.460666,5.036733 l -0.619049,0.486944 1.102056,2.512863 c 1.105861,2.521538 3.450891,6.509228 4.512534,7.6735 0.533174,0.584713 1.977881,1.600476 2.266824,1.593787 0.07188,-0.0016 0.261291,-0.08943 0.420923,-0.195047 z m -8.261909,-3.595586 c 0,-0.07507 -0.483496,-1.098109 -1.074434,-2.273431 -3.103238,-6.172029 -6.342085,-17.146088 -7.190208,-24.362289 -0.09502,-0.808523 -0.273807,-1.532483 -0.397292,-1.6088 -0.300775,-0.18589 -0.300901,-0.187356 0.305581,3.551217 1.097012,6.762359 3.593237,15.290589 6.18083,21.116486 0.657166,1.479594 1.138676,2.746342 1.07002,2.814997 -0.06865,0.06866 -1.406398,-0.276849 -2.972763,-0.767789 -4.345726,-1.36206 -11.29563,-2.81317 -10.972979,-2.29111 0.08056,0.130341 0.824304,0.319816 1.652773,0.421056 1.979791,0.241934 8.891095,2.013664 11.046177,2.831717 1.740147,0.660546 2.352295,0.808346 2.352295,0.567946 z m -38.95997,-0.81306 c 0.124358,-0.116076 -3.937044,-17.218497 -4.18841,-17.637247 -0.280165,-0.466727 -3.045467,0.803612 -4.399634,2.021124 -2.54053,2.284155 -3.612391,5.743569 -2.787168,8.995539 1.137182,4.481309 5.086916,7.279815 9.692739,6.867601 0.862508,-0.07719 1.619621,-0.188351 1.682473,-0.247017 z m 8.772175,-2.077462 c 2.156271,-0.48928 4.295799,-0.890474 4.754507,-0.891543 0.458708,-10e-4 0.906705,-0.119557 0.995549,-0.263308 0.08884,-0.143752 -0.0088,-0.261367 -0.21707,-0.261367 -0.628902,0 -4.571786,0.769363 -7.58236,1.479521 -1.559058,0.367763 -2.927361,0.567405 -3.04222,0.443871 -0.321697,-0.345994 -4.049623,-16.522936 -3.852976,-16.719585 0.04617,-0.04617 1.665933,-0.502908 3.599475,-1.014977 6.150671,-1.628912 9.350872,-3.053414 14.166436,-6.30589 3.0807,-2.080731 5.550765,-4.114181 9.468417,-7.794749 1.290532,-1.212433 2.407873,-2.14343 2.482979,-2.068884 0.07511,0.07455 0.20529,1.037711 0.289296,2.140366 0.150959,1.98152 0.153239,1.971822 0.196024,-0.834273 l 0.04329,-2.839101 -3.665183,3.547212 c -3.808978,3.686379 -8.036388,7.028806 -11.62474,9.191171 -3.62758,2.186006 -6.684279,3.415723 -11.369429,4.573954 -3.957734,0.978404 -4.181859,1.055199 -4.181859,1.432894 0,0.356111 3.803773,16.356497 4.061178,17.083148 0.08718,0.246102 0.344487,0.298914 0.841873,0.172786 0.393977,-0.0999 2.480544,-0.581966 4.636815,-1.071246 z M 51.48914,62.335838 c -0.359378,-0.115093 -0.947452,-0.219185 -1.306831,-0.231312 -0.513723,-0.01733 -0.5696,0.03211 -0.261366,0.231312 0.215627,0.13935 0.803701,0.243439 1.306831,0.231311 0.838189,-0.0202 0.860073,-0.03957 0.261366,-0.231311 z m -3.452859,-0.192842 c -0.820938,-0.0517 -2.232315,-0.05212 -3.136394,-10e-4 -0.904081,0.05118 -0.232404,0.09348 1.492613,0.094 1.725017,5.23e-4 2.464717,-0.04136 1.643781,-0.09306 z m 19.155905,-9.708105 c 0.535343,-2.575583 -0.05673,-6.206522 -1.452035,-8.904751 -0.519061,-1.003747 -2.438738,-3.149063 -2.817857,-3.149063 -0.338253,0 -0.09516,1.828782 0.722442,5.434878 0.686431,3.027571 2.143893,8.345038 2.401553,8.761941 0.270864,0.438266 0.824628,-0.597358 1.145897,-2.143005 z M 58.676711,35.937852 c -0.102153,-0.880149 -0.24454,-1.541464 -0.316415,-1.469588 -0.07188,0.07188 -0.0471,0.850805 0.05505,1.730954 0.102152,0.880149 0.244539,1.541464 0.316415,1.469588 0.07187,-0.07188 0.0471,-0.850805 -0.05505,-1.730954 z"
           id="path7699"
           transform="translate(-7.4758818,-4.3042956)" /><path
           style="fill:#144d93;stroke:#144d93;stroke-width:0.261366;stroke-opacity:1"
           d="m 45.214661,87.70552 c -1.225583,-0.372805 -2.286779,-1.042012 -3.017172,-1.902678 -0.40086,-0.472357 -2.584959,-4.651906 -4.853552,-9.287888 -2.702998,-5.523711 -4.260791,-8.42906 -4.519501,-8.42906 -0.217132,0 -1.40362,0.235229 -2.63664,0.522732 -4.08236,0.951883 -7.77052,0.564138 -10.641315,-1.118741 -1.695072,-0.993662 -4.040739,-3.606253 -4.911975,-5.470928 -2.165664,-4.635094 -1.288052,-9.958569 2.276455,-13.808663 2.040722,-2.204224 3.963505,-3.062655 11.055222,-4.93563 6.400809,-1.690501 7.881226,-2.163452 10.454648,-3.339957 6.724534,-3.074293 15.683947,-10.792178 21.508135,-18.5277 1.517189,-2.015086 2.539167,-2.716999 3.957892,-2.718347 5.866727,-0.0056 12.868006,13.928893 16.013182,31.870631 0.637627,3.637347 0.713794,4.714097 0.722121,10.208349 0.0088,5.774006 -0.02791,6.255711 -0.611761,8.037698 -1.09577,3.344445 -3.225392,5.08925 -5.521034,4.5234 -0.50313,-0.124016 -1.8557,-0.692694 -3.005712,-1.263732 -4.230784,-2.100794 -10.887702,-4.291769 -16.46607,-5.419441 -3.55774,-0.719202 -8.233035,-1.134021 -8.233035,-0.730482 0,0.142251 1.41011,3.155354 3.133577,6.695781 3.430902,7.047922 3.808435,8.160916 3.394598,10.007539 -0.384216,1.714453 -0.860318,2.515524 -2.191402,3.687192 -1.672827,1.472483 -3.918449,2.00471 -5.906661,1.399925 z m 3.821586,-3.965919 c 0.347667,-0.326616 0.762675,-1.029597 0.922242,-1.56218 0.270856,-0.90404 0.199296,-1.16539 -1.077744,-3.936146 -0.752327,-1.632295 -1.502335,-3.104761 -1.666688,-3.272146 -0.226625,-0.230804 -0.930317,-0.01929 -2.912487,0.875465 -1.437514,0.648888 -2.664584,1.228813 -2.726823,1.288715 -0.06224,0.05991 0.609582,1.560333 1.492934,3.334286 1.312542,2.635859 1.763161,3.305341 2.465457,3.662916 1.109155,0.564731 2.671447,0.390398 3.503109,-0.39091 z M 43.023001,72.666433 c 1.376482,-0.643235 2.462498,-1.270059 2.413366,-1.392946 -0.04913,-0.122884 -0.616361,-1.360821 -1.260506,-2.750973 -1.144308,-2.469566 -1.191535,-2.52755 -2.058578,-2.52755 -1.173722,0 -5.574853,1.040191 -5.474142,1.293792 0.725638,1.827237 3.269641,6.547194 3.528861,6.547194 0.191564,0 1.474514,-0.526282 2.850999,-1.169517 z m 33.085165,-3.290187 c 0.26095,-0.350315 0.662067,-1.519048 0.891368,-2.597183 0.5194,-2.442117 0.363566,-10.451509 -0.284774,-14.636507 -1.304175,-8.418387 -4.412373,-18.369307 -7.485486,-23.964824 -1.993082,-3.629004 -4.174948,-6.087791 -5.405277,-6.091312 -0.441735,-0.0013 -1.289294,1.924061 -1.629621,3.701865 -0.258235,1.348985 -0.363325,8.697245 -0.139544,9.757518 0.06068,0.287502 0.119327,0.5893 0.130325,0.670662 0.011,0.08136 0.662036,0.414039 1.446746,0.739284 2.71738,1.126291 5.503109,4.893539 6.519759,8.816921 1.223363,4.72111 0.445166,9.524563 -1.943391,11.99567 l -0.764102,0.790513 1.554099,3.206012 c 1.843902,3.803858 3.828443,6.768469 5.16973,7.722806 1.102751,0.784622 1.280291,0.774423 1.940168,-0.111425 z m -9.958287,-5.537553 c -0.68668,-1.473452 -1.460486,-3.240295 -1.719568,-3.926319 -0.259084,-0.686026 -0.519922,-1.198455 -0.579642,-1.138738 -0.05972,0.05972 0.503365,1.594101 1.251293,3.409739 0.747931,1.815635 1.290606,3.370424 1.205944,3.455086 -0.08466,0.08466 -0.710522,-0.03572 -1.3908,-0.267516 -0.680282,-0.231796 -1.421749,-0.41223 -1.647705,-0.400962 -0.342766,0.01709 3.400356,1.46433 3.950006,1.52723 0.09844,0.01126 -0.382849,-1.185068 -1.069528,-2.65852 z M 28.327598,65.5218 c 0.07199,-0.116488 0.01978,-0.675159 -0.11603,-1.241489 -0.13581,-0.566331 -0.957024,-4.028869 -1.824919,-7.69453 -2.153901,-9.097263 -2.01041,-8.625084 -2.621088,-8.625084 -0.87028,0 -3.097927,1.273331 -4.257544,2.43363 -3.614724,3.616846 -3.438228,9.656854 0.382567,13.092076 1.779955,1.600332 3.480741,2.2165 6.165269,2.233575 1.177465,0.0075 2.19975,-0.08169 2.271745,-0.198178 z m 6.496026,-1.513292 c 2.653925,-0.603455 2.416468,-0.79396 -0.299228,-0.240062 -1.160855,0.236769 -2.219762,0.36305 -2.353128,0.280626 -0.133365,-0.08242 -0.598417,-1.648366 -1.033449,-3.479869 -1.011705,-4.25932 -2.91027,-12.798695 -2.91027,-13.089825 0,-0.122594 0.264633,-0.360931 0.588074,-0.529638 0.545021,-0.284283 0.530709,-0.295218 -0.195489,-0.149378 -0.43096,0.08655 -0.827579,0.201374 -0.881376,0.255171 -0.08539,0.08539 3.220298,14.184051 3.919155,16.7151 0.193039,0.699131 0.374406,0.91106 0.70192,0.820199 0.242894,-0.06739 1.351599,-0.329431 2.463791,-0.582324 z m 26.728115,0.418259 c -0.287503,-0.123545 -0.699155,-0.224626 -0.914782,-0.224626 -0.247116,0 -0.198805,0.08304 0.130683,0.224626 0.287503,0.123545 0.699155,0.224626 0.914782,0.224626 0.247117,0 0.198806,-0.08304 -0.130683,-0.224626 z m -1.5083,-0.419276 c -0.08685,-0.08685 -0.31228,-0.09613 -0.500953,-0.02062 -0.208499,0.08343 -0.146569,0.145367 0.15791,0.157907 0.275522,0.01134 0.429892,-0.05042 0.343043,-0.137274 z m -1.045465,-0.261366 c -0.08685,-0.08685 -0.31228,-0.09613 -0.500952,-0.02062 -0.2085,0.08343 -0.146569,0.145367 0.157909,0.157907 0.275522,0.01134 0.429893,-0.05042 0.343043,-0.137274 z m -1.170703,-0.276554 c -0.17969,-0.07251 -0.473727,-0.07251 -0.653416,0 -0.179689,0.0725 -0.03267,0.13183 0.326708,0.13183 0.359378,0 0.506397,-0.05933 0.326708,-0.13183 z M 37.827312,63.223393 c -0.08685,-0.08685 -0.312279,-0.09613 -0.500952,-0.02062 -0.208501,0.08343 -0.146568,0.145367 0.157909,0.157907 0.275523,0.01134 0.429892,-0.05042 0.343043,-0.137275 z m 18.818367,0 c -0.08685,-0.08685 -0.312281,-0.09613 -0.500953,-0.02062 -0.2085,0.08343 -0.146569,0.145367 0.157909,0.157907 0.275522,0.01134 0.429893,-0.05042 0.343044,-0.137275 z M 39.008905,62.946839 c -0.17969,-0.07251 -0.473727,-0.07251 -0.653416,0 -0.179689,0.0725 -0.03267,0.13183 0.326708,0.13183 0.359378,0 0.506397,-0.05933 0.326708,-0.13183 z m 16.400728,0.07288 c 0,-0.05512 -0.290477,-0.155743 -0.645506,-0.223612 -0.355027,-0.06787 -0.583317,-0.02277 -0.507307,0.100216 0.133841,0.216557 1.152813,0.325628 1.152813,0.123396 z M 40.440974,62.70066 c -0.08685,-0.08685 -0.31228,-0.09613 -0.500952,-0.02062 -0.2085,0.08343 -0.146569,0.145366 0.157909,0.157907 0.275522,0.01134 0.429893,-0.05043 0.343043,-0.137275 z m 13.204438,-0.01519 c -0.17969,-0.07251 -0.473727,-0.07251 -0.653416,0 -0.179689,0.07251 -0.03267,0.13183 0.326708,0.13183 0.359378,0 0.506397,-0.05932 0.326708,-0.13183 z M 42.73094,62.339776 c 0.09941,-0.16085 -0.16446,-0.195794 -0.703332,-0.09314 -1.15557,0.22013 -1.255287,0.35057 -0.268002,0.35057 0.446727,0 0.883828,-0.115842 0.971334,-0.25743 z m 8.496834,0.157228 c 0,-0.05511 -0.235391,-0.161755 -0.523093,-0.236991 -0.287701,-0.07523 -0.457182,-0.03015 -0.376623,0.1002 0.14068,0.227626 0.899716,0.343027 0.899716,0.136791 z m 11.779749,-6.454909 c -0.276544,-0.779106 -0.511403,-1.290493 -0.521904,-1.136412 -0.02691,0.394712 0.802326,2.775359 0.924251,2.653434 0.05525,-0.05525 -0.125804,-0.737913 -0.402347,-1.517022 z m -0.780186,-2.358738 c -0.137727,-0.344311 -0.25787,-0.488619 -0.266981,-0.320689 -0.02214,0.407894 0.282336,1.18177 0.413385,1.050718 0.0572,-0.05721 -0.0087,-0.385719 -0.146404,-0.730029 z m 4.545963,-0.04918 c 0.956297,-2.288739 0.601526,-6.525603 -0.7924,-9.463291 -0.694703,-1.464083 -2.833876,-4.020276 -3.126684,-3.736218 -0.326808,0.317041 1.469764,8.669821 2.65875,12.361302 0.660639,2.051111 0.733346,2.099464 1.260334,0.838207 z m -4.912336,-1.279262 c -0.08343,-0.2085 -0.145367,-0.146569 -0.157907,0.15791 -0.01134,0.275521 0.05042,0.429892 0.137275,0.343043 0.08685,-0.08685 0.09613,-0.312281 0.02062,-0.500953 z m -0.522732,-1.829563 c -0.08343,-0.2085 -0.145367,-0.146569 -0.157907,0.157909 -0.01134,0.275522 0.05042,0.429893 0.137274,0.343043 0.08685,-0.08685 0.09613,-0.31228 0.02062,-0.500952 z m -0.261367,-1.045465 c -0.08343,-0.2085 -0.145366,-0.146569 -0.157907,0.157909 -0.01134,0.275522 0.05042,0.429893 0.137275,0.343044 0.08685,-0.08685 0.09613,-0.312281 0.02062,-0.500953 z m -0.261366,-1.045465 c -0.08343,-0.2085 -0.145367,-0.146569 -0.157907,0.15791 -0.01134,0.275521 0.05042,0.429892 0.137275,0.343043 0.08685,-0.08685 0.09613,-0.312281 0.02062,-0.500953 z m -0.261366,-1.045465 c -0.08343,-0.208499 -0.145367,-0.146569 -0.157907,0.15791 -0.01134,0.275522 0.05042,0.429892 0.137275,0.343043 0.08685,-0.08685 0.09613,-0.31228 0.02062,-0.500953 z M 33.363706,45.691479 c -0.15002,-0.150022 -3.829326,0.783615 -3.829326,0.971705 0,0.09329 0.88282,-0.06596 1.961823,-0.353882 1.079002,-0.287927 1.919379,-0.565947 1.867503,-0.617823 z m 26.929061,0.652014 c -0.08343,-0.208499 -0.145367,-0.146568 -0.157907,0.15791 -0.01134,0.275522 0.05042,0.429893 0.137274,0.343043 0.08685,-0.08685 0.09613,-0.31228 0.02062,-0.500953 z m -0.266811,-1.323166 c -0.0725,-0.179689 -0.13183,-0.03267 -0.13183,0.326708 0,0.359378 0.05933,0.506397 0.13183,0.326708 0.07251,-0.17969 0.07251,-0.473727 0,-0.653416 z M 59.76459,43.713496 c -0.07251,-0.179689 -0.13183,-0.03267 -0.13183,0.326708 0,0.359378 0.05932,0.506397 0.13183,0.326708 0.07251,-0.17969 0.07251,-0.473727 0,-0.653416 z m -21.343759,0.326708 c 0.215627,-0.139349 0.274434,-0.253362 0.130683,-0.253362 -0.143752,0 -0.437789,0.114013 -0.653416,0.253362 -0.215627,0.139349 -0.274434,0.253361 -0.130683,0.253361 0.143752,0 0.437789,-0.114012 0.653416,-0.253361 z m 3.114912,-1.468767 c 2.854362,-1.536431 6.622609,-4.121512 9.299982,-6.379945 2.186676,-1.844519 2.302142,-1.94771 5.182635,-4.631683 1.444778,-1.346209 1.855643,-1.604372 2.156272,-1.354873 0.307463,0.255173 0.371396,0.167749 0.371396,-0.50787 0,-0.448856 -0.07921,-0.816101 -0.17601,-0.816101 -0.0968,0 -1.6552,1.444004 -3.463102,3.208899 -4.994078,4.875278 -8.750088,7.728798 -13.631953,10.356485 -1.354147,0.728875 -2.354135,1.326861 -2.222199,1.328858 0.131936,0.002 1.249276,-0.5397 2.482979,-1.20377 z M 59.51125,42.280956 c -0.06627,-0.254301 -0.124844,-0.10952 -0.13017,0.321734 -0.0053,0.431254 0.04889,0.639318 0.120487,0.462365 0.07159,-0.176954 0.07595,-0.529798 0.0097,-0.784099 z m -0.376299,-1.938235 c -0.145001,-0.145 -0.183356,0.09883 -0.09725,0.618218 0.120323,0.725794 0.157136,0.762605 0.239435,0.239434 0.05349,-0.340021 -0.01051,-0.725964 -0.142183,-0.857652 z m -0.261366,-1.829564 c -0.145001,-0.145 -0.183356,0.09883 -0.09725,0.618219 0.120323,0.725794 0.157136,0.762605 0.239435,0.239433 0.05349,-0.34002 -0.01051,-0.725963 -0.142183,-0.857652 z"
           id="path7701"
           transform="translate(-7.4758818,-4.3042956)" /><path
           style="fill:#144d93;stroke:#144d93;stroke-width:0.261366;stroke-opacity:1"
           d=""
           id="path7703"
           transform="translate(-7.4758818,-4.3042956)" /><path
           style="fill:#144d93;stroke:#144d93;stroke-width:0.261366;stroke-opacity:1"
           d="M 44.729447,87.591878 C 42.57384,86.811796 42.07398,86.074501 37.476318,76.893477 c -2.389865,-4.772296 -4.378311,-8.714241 -4.418769,-8.759879 -0.04046,-0.04564 -1.278815,0.175074 -2.751903,0.49047 -2.099648,0.449544 -3.234678,0.546658 -5.253197,0.449458 -2.303713,-0.110932 -2.778264,-0.224519 -4.506523,-1.078671 -7.67495,-3.793166 -9.493854,-13.663449 -3.647436,-19.79281 2.053775,-2.153169 4.055599,-3.068531 10.54496,-4.821834 9.192579,-2.483662 11.817702,-3.542626 16.246246,-6.553672 5.109372,-3.473951 11.55588,-9.540666 15.732068,-14.805216 2.195999,-2.768301 2.977857,-3.33364 4.610387,-3.33364 2.749654,0 5.934377,3.264383 8.853137,9.07458 3.031689,6.034994 5.659046,14.572072 7.108507,23.09768 0.651361,3.831257 0.971279,12.68269 0.561195,15.527071 -0.54511,3.78096 -2.082166,6.311761 -4.222914,6.953143 -1.208207,0.361989 -1.747074,0.204979 -6.155253,-1.793459 C 66.650745,69.948162 61.811283,68.3011 57.666904,67.28908 54.01927,66.398362 47.40733,65.520791 47.070452,65.882663 c -0.131159,0.140892 1.023189,2.823644 2.747408,6.38509 3.363964,6.948405 3.888126,8.395205 3.625393,10.006888 -0.245355,1.50508 -1.336619,3.449833 -2.384151,4.248827 -1.75653,1.339768 -4.363723,1.779849 -6.329655,1.06841 z m 3.947302,-3.606551 c 0.625509,-0.320479 1.244194,-1.59547 1.244194,-2.564044 0,-0.442388 -0.60885,-2.102372 -1.352998,-3.688852 -1.56676,-3.340228 -1.233863,-3.234992 -4.862962,-1.537322 l -2.164786,1.012672 1.55269,3.097419 c 0.853978,1.703582 1.732401,3.246568 1.95205,3.42886 0.907608,0.753247 2.444519,0.859579 3.631812,0.251267 z M 42.768474,72.676381 c 1.354416,-0.641594 2.447878,-1.321392 2.447878,-1.521826 0,-0.199242 -0.532521,-1.456377 -1.183378,-2.793636 l -1.183377,-2.43138 -1.364943,0.179023 c -1.889994,0.247887 -4.63202,0.95436 -4.63202,1.193424 0,0.568354 3.036839,6.533964 3.326164,6.533964 0.07799,0 1.243343,-0.521807 2.589676,-1.159569 z m 33.587877,-3.960799 c 1.762837,-3.985181 1.035073,-15.58405 -1.605638,-25.59016 -1.712591,-6.489309 -4.254416,-12.873717 -6.665645,-16.742377 -1.226882,-1.968448 -3.59251,-4.39988 -4.124604,-4.239334 -0.551731,0.16647 -1.517743,2.444371 -1.766637,4.165804 -0.275349,1.904424 -0.33026,7.855053 -0.08385,9.087093 0.13787,0.689344 0.425645,0.961903 1.688885,1.599585 0.837486,0.42276 1.953266,1.199222 2.479516,1.725471 4.868696,4.868695 6.003176,14.406899 2.225335,18.709621 -0.445426,0.507312 -0.809864,1.062185 -0.809864,1.233047 0,0.555479 2.618873,5.703416 3.893156,7.6528 1.384865,2.118556 2.910666,3.598325 3.710255,3.598325 0.376402,0 0.680964,-0.345048 1.059095,-1.199875 z M 66.81555,65.388561 c -0.455632,-1.09048 -1.188299,-2.452734 -1.20217,-2.235201 -0.0058,0.09026 0.165957,0.586341 0.381584,1.102411 0.505707,1.210329 0.493954,1.476936 -0.06534,1.481829 -0.390887,0.0034 -0.400387,0.04084 -0.06534,0.257364 0.215627,0.13935 0.599454,0.255164 0.852948,0.257365 0.420645,0.0037 0.429231,-0.07179 0.09832,-0.863768 z m -39.001427,0.18639 c 0.227385,-0.08725 0.413426,-0.37407 0.413426,-0.637365 0,-0.263295 -0.882111,-4.154807 -1.960246,-8.647802 -1.078136,-4.492995 -1.960247,-8.205082 -1.960247,-8.249083 0,-0.284461 -1.162719,0.02266 -2.248026,0.593814 -1.76094,0.926692 -3.391173,2.579731 -4.232922,4.29214 -0.609094,1.239108 -0.706622,1.762177 -0.706622,3.789809 0,1.998268 0.104161,2.574465 0.692088,3.828482 1.149358,2.451521 3.388614,4.311808 5.903348,4.904273 1.173344,0.276436 3.518984,0.348382 4.099201,0.125732 z m 5.118018,-1.339504 c -0.359379,-0.06607 -0.803127,-0.243115 -0.986107,-0.393424 -0.251547,-0.206636 -0.292537,-0.168654 -0.168061,0.155727 0.109056,0.284194 0.441932,0.417002 0.986106,0.393424 0.715241,-0.03099 0.736975,-0.05113 0.168062,-0.155727 z m 1.49741,-0.227956 c -0.08685,-0.08685 -0.312278,-0.09613 -0.500952,-0.02062 -0.2085,0.08343 -0.146568,0.145367 0.157909,0.157907 0.275523,0.01134 0.429893,-0.05042 0.343043,-0.137274 z m -4.455262,-7.993448 c -0.08343,-0.2085 -0.145367,-0.146569 -0.157909,0.157909 -0.01135,0.275522 0.05043,0.429893 0.137275,0.343043 0.08685,-0.08685 0.09614,-0.31228 0.02063,-0.500952 z m 36.899786,-2.799682 c 0.785052,-2.348098 0.09957,-7.313541 -1.343098,-9.728995 -0.724643,-1.213275 -2.166548,-2.842923 -2.515404,-2.842923 -0.522291,0 1.695229,10.053833 2.900027,13.148191 0.322673,0.828746 0.530503,0.703789 0.958475,-0.576273 z m -37.422518,0.447386 c -0.08344,-0.2085 -0.145368,-0.146569 -0.157909,0.15791 -0.01135,0.275521 0.05043,0.429892 0.137275,0.343043 0.08685,-0.08685 0.09614,-0.312281 0.02063,-0.500953 z m -0.261366,-1.045465 c -0.08343,-0.2085 -0.145368,-0.146569 -0.157909,0.15791 -0.01135,0.275522 0.05043,0.429892 0.137274,0.343043 0.08685,-0.08685 0.09614,-0.31228 0.02063,-0.500953 z m -0.266812,-1.323166 c -0.07251,-0.179689 -0.131829,-0.03267 -0.131829,0.326708 0,0.359378 0.05932,0.506397 0.131829,0.326707 0.07251,-0.179689 0.07251,-0.473726 0,-0.653415 z m -0.255921,-1.02913 c -0.08344,-0.208499 -0.145367,-0.146569 -0.157909,0.15791 -0.01135,0.275522 0.05043,0.429893 0.137275,0.343043 0.08685,-0.08685 0.09614,-0.31228 0.02064,-0.500953 z m -0.267703,-1.909118 c -0.03826,-1.32262 -0.2162,-1.741436 -0.526536,-1.239301 -0.112631,0.18224 0.358175,2.674693 0.505229,2.674693 0.03456,0 0.04415,-0.645927 0.02131,-1.435392 z M 57.899133,30.071999 c 0.582797,-0.222057 0.932304,-0.938184 0.45087,-0.923819 -0.107814,0.0032 -1.489787,1.248376 -3.071053,2.76702 -2.626942,2.522909 -2.665846,2.57315 -0.450869,0.582225 1.333286,-1.198421 2.71526,-2.289862 3.071052,-2.425426 z"
           id="path7705"
           transform="translate(-7.4758818,-4.3042956)" /><path
           style="fill:#144d93;stroke:#144d93;stroke-width:0.261366;stroke-opacity:1"
           d="m 39.765886,72.718976 c -0.285734,-0.4638 -1.000787,-1.839852 -1.589006,-3.057893 l -1.06949,-2.214622 0.591379,-0.223653 c 0.98769,-0.373535 4.471517,-0.987742 4.827569,-0.851112 0.259434,0.09955 2.428648,4.345575 2.428648,4.753838 0,0.05033 -1.050656,0.619179 -2.334791,1.264111 l -2.334792,1.172602 z"
           id="path7707"
           transform="translate(-7.4758818,-4.3042956)" /><path
           style="fill:#144d93;stroke:#144d93;stroke-width:0.261366;stroke-opacity:1"
           d="m 39.610377,72.136355 c -1.059429,-1.80778 -2.226989,-4.374724 -2.090366,-4.595784 0.149275,-0.241532 3.499906,-1.022874 4.386392,-1.022874 0.531995,0 0.816633,0.343284 1.712626,2.065497 0.591025,1.136024 1.07459,2.18145 1.07459,2.323171 0,0.218129 -3.87599,2.406853 -4.262274,2.406853 -0.0722,0 -0.441639,-0.529589 -0.820968,-1.176863 z"
           id="path7709"
           transform="translate(-7.4758818,-4.3042956)" /><path
           style="fill:#144d93;stroke:#144d93;stroke-width:0.261366;stroke-opacity:1"
           d="m 39.778346,72.594461 c -0.560246,-0.793237 -2.40298,-4.642231 -2.40298,-5.019204 0,-0.130793 0.911515,-0.431212 2.025588,-0.667597 1.114073,-0.236385 2.161174,-0.471558 2.326891,-0.522608 0.165717,-0.05105 0.481895,0.04612 0.702619,0.215938 0.439183,0.33789 2.259826,3.779976 2.261879,4.276283 0.0013,0.308084 -3.606056,2.435945 -4.12962,2.435945 -0.152204,0 -0.505173,-0.323441 -0.784377,-0.718757 z"
           id="path7711"
           transform="translate(-7.4758818,-4.3042956)" /><path
           style="fill:#144d93;stroke:#144d93;stroke-width:0.0905559;stroke-opacity:1"
           d="M 46.047682,88.007062 C 45.382554,87.900041 44.638028,87.665702 44.010174,87.365758 43.469428,87.107428 43.153891,86.864225 42.462,86.172485 l -0.869004,-0.868814 -3.9031,-7.787809 c -4.140703,-8.261894 -4.678088,-9.281981 -4.889783,-9.281981 -0.07333,0 -1.258773,0.232461 -2.634308,0.516579 l -2.500973,0.516579 -1.675285,0.0041 c -1.415892,0.0035 -1.829517,-0.02839 -2.671399,-0.205828 -2.394965,-0.504776 -4.626497,-1.744988 -6.391847,-3.55238 -1.742906,-1.784414 -2.95534,-4.140485 -3.399617,-6.606329 -0.229473,-1.273635 -0.207016,-3.301495 0.05014,-4.527796 0.548742,-2.616763 1.621885,-4.61032 3.488757,-6.48099 1.07449,-1.076677 2.015425,-1.75506 3.354776,-2.418686 1.027436,-0.509078 1.80761,-0.759611 5.569188,-1.788403 6.858443,-1.875785 9.575679,-2.722777 11.89221,-3.706931 4.584366,-1.94762 9.968678,-5.941772 15.690753,-11.639605 2.101718,-2.092813 3.300086,-3.383934 4.773432,-5.142892 l 0.888216,-1.060398 h 5.145379 5.14538 l 0.355956,0.475418 c 0.686838,0.917348 0.82453,1.119413 1.427302,2.094585 4.273941,6.914435 8.300165,20.028832 9.282348,30.234876 0.413435,4.296091 0.45902,7.77703 0.139622,10.66196 -0.184808,1.669261 -0.337617,2.407977 -0.736129,3.558653 -1.028994,2.971142 -2.805844,4.561407 -4.899661,4.385153 -0.749384,-0.06308 -1.231215,-0.24184 -3.826851,-1.419755 C 65.797898,69.649672 60.08079,67.780207 55.054538,66.830254 52.613551,66.368911 48.81146,65.879427 47.668945,65.879427 h -0.511953 l 0.0559,0.279482 c 0.09174,0.458681 0.903976,2.317417 2.252166,5.153873 2.605907,5.482564 3.53355,7.48757 3.741751,8.087418 0.272679,0.785612 0.434239,1.957838 0.358089,2.59818 -0.335347,2.819937 -2.20164,5.049728 -4.848292,5.792592 -0.665211,0.186712 -2.119641,0.304471 -2.668921,0.21609 z m 2.026469,-3.885729 c 0.625827,-0.185851 1.104009,-0.631978 1.411285,-1.316681 0.373855,-0.833058 0.398279,-1.444574 0.09432,-2.361532 -0.578575,-1.745396 -2.00106,-4.750913 -2.412372,-5.097008 -0.316485,-0.266306 -0.510473,-0.282156 -1.125905,-0.09199 -0.784005,0.242249 -4.248144,1.910596 -4.277686,2.060154 -0.0328,0.166052 2.08994,4.370768 2.797254,5.540794 0.498594,0.824764 0.729148,1.031588 1.428438,1.281414 0.454258,0.162287 1.513085,0.154594 2.084666,-0.01515 z M 40.102109,73.418207 c -0.604197,-0.976821 -1.996808,-1.437128 -2.908864,-3.302869 -0.553249,-1.131749 -0.115054,-2.495801 -0.133025,-2.477828 -0.136898,0.136898 2.523567,5.354512 3.039932,5.961809 0.223764,0.26317 0.224674,0.178961 0.002,-0.181112 z m 2.413893,-0.747214 c -0.436277,-1.017969 1.988711,-1.011561 2.205769,-1.172133 0.481214,-0.355988 1.202184,-1.301854 0.570454,-2.691264 -1.084763,-2.385795 -2.367113,-2.53614 -2.598658,-2.64164 -0.596703,-0.271876 -5.749119,0.840987 -5.745368,1.240934 9.06e-4,0.09596 0.02473,0.111801 0.06792,0.04515 0.215101,-0.331956 4.792983,-2.233454 5.401596,-2.080702 0.166356,0.04175 1.343634,0.70751 1.641302,1.211269 0.562741,0.952359 0.844572,4.01291 0.910791,4.344007 0.06486,0.324294 0.915032,1.207187 -2.272691,2.875282 -1.040516,0.544488 -2.283031,0.80812 -2.306416,0.830442 -0.106771,0.101919 3.132168,0.38799 2.396972,-1.327453 z m 33.076666,-2.947114 c 0.10994,-0.077 0.302193,-0.314575 0.427229,-0.527933 1.987411,-3.391261 1.454885,-14.843932 -1.178116,-25.336894 -1.89135,-7.537357 -5.096414,-15.285461 -7.748933,-18.732714 -0.792557,-1.030018 -2.259256,-2.511361 -2.731586,-2.758856 -0.260045,-0.136261 -0.377718,-0.155449 -0.495949,-0.08087 -0.435092,0.274449 -1.338215,2.530637 -1.554734,3.884048 -0.246586,1.541344 -0.357885,6.35542 -0.193006,8.348113 0.122728,1.48327 0.242423,1.645582 1.779168,2.412638 2.101728,1.049065 3.762382,2.814304 5.037148,5.35438 1.280882,2.552262 1.886396,5.111896 1.885951,7.972313 -4.53e-4,3.175864 -0.689106,5.347824 -2.332793,7.357883 -0.655781,0.801952 -0.726664,0.984934 -0.576146,1.487315 0.172971,0.577327 2.373413,4.894395 3.1769,6.232791 1.289492,2.147951 2.828734,3.937998 3.743356,4.353301 0.458969,0.208404 0.509914,0.210711 0.761511,0.03449 z M 66.919584,66.0379 c -7.24e-4,-0.06226 -0.02968,-0.21507 -0.06444,-0.339584 -0.06311,-0.226055 -0.06328,-0.225988 -0.115072,0.04528 -0.05367,0.281103 -0.108738,0.29878 -0.608711,0.195378 l -0.251932,-0.0521 0.271668,0.128028 c 0.341335,0.160861 0.770135,0.173696 0.768489,0.023 z M 27.646505,65.511251 c 0.52256,-0.145111 0.556491,-0.343931 0.281584,-1.649968 -0.599911,-2.850085 -3.51271,-15.059656 -3.699235,-15.506073 -0.153689,-0.367829 -0.270545,-0.385614 -0.964447,-0.146792 -1.160948,0.399567 -2.408554,1.178148 -3.42022,2.134423 -1.006625,0.95151 -2.035707,2.558518 -2.410997,3.765001 -0.200305,0.643939 -0.293157,3.356662 -0.151039,4.41268 0.321889,2.391821 2.283601,4.993838 4.677658,6.204454 0.630104,0.318628 1.871631,0.688056 2.626122,0.781427 0.915984,0.113356 2.659878,0.116119 3.060574,0.0048 z m 38.742034,-0.870176 c -0.106751,-0.183576 -0.132529,-0.124818 -0.04514,0.102903 0.03105,0.08093 0.07554,0.128069 0.09886,0.104754 0.02332,-0.02332 -8.15e-4,-0.116761 -0.05371,-0.207657 z m 0.249388,-11.038694 c 0.890681,-2.221338 0.407519,-7.036034 -0.971647,-9.682453 -0.57438,-1.102152 -2.212329,-3.124489 -2.530612,-3.124489 -0.154527,0 -0.136342,0.419299 0.07413,1.709261 0.418501,2.564954 1.560127,7.421899 2.321021,9.874577 0.449163,1.447842 0.623582,1.847117 0.784061,1.794854 0.05934,-0.01932 0.204707,-0.276611 0.323047,-0.57175 z m -38.430585,-5.3854 c -0.08342,-0.409012 -0.133202,-0.840301 -0.110623,-0.95842 0.02258,-0.118121 -2.3e-5,-0.214764 -0.05023,-0.214764 -0.108922,0 -0.02528,1.139545 0.121924,1.661137 0.171097,0.606248 0.196687,0.28551 0.03893,-0.487953 z"
           id="path7713"
           transform="translate(-7.4758818,-4.3042956)"
           sodipodi:nodetypes="ssscsssccsssssssssscccssssssssscsssssssssssssssscsssccssssssssssssssssssssssscsssssssssscssscssssssssccssssssssssssssssss" /><path
           style="fill:#144d93;stroke:#144d93;stroke-width:0.25359;stroke-opacity:1"
           d="m 66.705723,64.917869 c -1.513918,-1.364781 -3.06371,-3.534586 -5.057603,-7.080963 -1.841594,-3.275496 -1.836951,-2.846622 -0.05806,-5.363802 1.393646,-1.97205 1.819845,-3.529278 1.809964,-6.61316 -0.01055,-3.277894 -0.528844,-5.305686 -2.089997,-8.176271 -1.462056,-2.688368 -3.015895,-4.291747 -5.346553,-5.517018 -2.686728,-1.412462 -2.626742,-1.248288 -2.485954,-6.803694 0.102766,-4.054857 0.203094,-4.956719 0.68285,-6.137934 0.309313,-0.761568 0.737425,-1.609397 0.95136,-1.884063 0.384649,-0.493845 0.401167,-0.489484 1.486717,0.392452 3.224835,2.619958 6.74252,8.705276 9.50404,16.441235 4.014039,11.244693 5.605584,25.806054 3.338549,30.54506 -0.730965,1.528008 -1.22078,1.563493 -2.73531,0.198158 z"
           id="path7715" /></g><path
         style="fill:#ffffff;fill-opacity:0.00448429;stroke:#144d93;stroke-width:0.20121;stroke-opacity:1"
         d="M 58.188289,49.29724 C 56.521236,45.569712 53.776562,37.139699 53.374901,34.513357 l -0.155372,-1.015906 1.124742,0.76193 c 4.01043,2.716763 6.20539,7.10045 6.188871,12.36016 -0.0061,1.948289 -0.102429,2.662105 -0.466554,3.457878 -0.252364,0.551528 -0.585445,1.03266 -0.74018,1.069184 -0.175277,0.04137 -0.604348,-0.655852 -1.138119,-1.849363 z"
         id="path7786" /></g></g></svg>
