<?xml version="1.0" encoding="UTF-8" standalone="no"?>
<svg
   version="1.1"
   x="0px"
   y="0px"
   viewBox="0 0 147.99997 147.99999"
   xml:space="preserve"
   id="svg18"
   sodipodi:docname="placeholderImage.svg"
   inkscape:version="1.2.2 (b0a8486, 2022-12-01)"
   width="147.99997"
   height="147.99998"
   xmlns:inkscape="http://www.inkscape.org/namespaces/inkscape"
   xmlns:sodipodi="http://sodipodi.sourceforge.net/DTD/sodipodi-0.dtd"
   xmlns:xlink="http://www.w3.org/1999/xlink"
   xmlns="http://www.w3.org/2000/svg"
   xmlns:svg="http://www.w3.org/2000/svg"><defs
     id="defs22"><linearGradient
       inkscape:collect="always"
       id="linearGradient2449"><stop
         style="stop-color:#716060;stop-opacity:1;"
         offset="1"
         id="stop2445" /><stop
         style="stop-color:#b11b1b;stop-opacity:0;"
         offset="1"
         id="stop2447" /></linearGradient><linearGradient
       inkscape:collect="always"
       id="linearGradient2392"><stop
         style="stop-color:#d7d5ae;stop-opacity:1;"
         offset="0"
         id="stop2388" /><stop
         style="stop-color:#000000;stop-opacity:0;"
         offset="1"
         id="stop2390" /></linearGradient><radialGradient
       inkscape:collect="always"
       xlink:href="#linearGradient2392"
       id="radialGradient2396"
       cx="34.616524"
       cy="43.022243"
       fx="34.616524"
       fy="43.022243"
       r="30.000002"
       gradientUnits="userSpaceOnUse"
       gradientTransform="matrix(2.466656,0,0,2.466656,-11.387073,-32.121124)" /><linearGradient
       inkscape:collect="always"
       xlink:href="#linearGradient2449"
       id="linearGradient2451"
       x1="4.6165228"
       y1="43.022243"
       x2="64.616524"
       y2="43.022243"
       gradientUnits="userSpaceOnUse"
       gradientTransform="matrix(2.466656,0,0,2.466656,-11.387073,-32.121124)" /></defs><sodipodi:namedview
     id="namedview20"
     pagecolor="#ffffff"
     bordercolor="#000000"
     borderopacity="0.25"
     inkscape:showpageshadow="2"
     inkscape:pageopacity="0.0"
     inkscape:pagecheckerboard="0"
     inkscape:deskcolor="#d1d1d1"
     showgrid="false"
     inkscape:zoom="2.7362319"
     inkscape:cx="26.313559"
     inkscape:cy="43.125"
     inkscape:window-width="1440"
     inkscape:window-height="900"
     inkscape:window-x="0"
     inkscape:window-y="0"
     inkscape:window-maximized="0"
     inkscape:current-layer="svg18" /><rect
     style="fill:url(#linearGradient2451);fill-opacity:1;stroke:url(#radialGradient2396);stroke-width:2.34826;stroke-dasharray:none"
     id="rect357"
     width="145.65173"
     height="145.65173"
     x="1.1741359"
     y="1.174134"
     inkscape:export-filename="rect357.svg"
     inkscape:export-xdpi="96"
     inkscape:export-ydpi="96" /><g
     id="g12"
     transform="matrix(1.5632232,0,0,1.5632232,19.781347,18.942856)"
     style="fill:#e6e6e6"><path
       d="m 27.10645,51.9585 c 1.22791,1.06079 2.65796,1.823 4.18359,2.27332 v 7.797 h -2.47363 c -0.88477,0 -1.60449,0.71973 -1.60449,1.60449 v 1.86719 h -16.625 c -0.27637,0 -0.5,0.22363 -0.5,0.5 0,0.27637 0.22363,0.5 0.5,0.5 13.94728,0 40.87238,0 49.81055,0 0.27637,0 0.5,-0.22363 0.5,-0.5 0,-0.27637 -0.22363,-0.5 -0.5,-0.5 H 41.7832 v -1.8672 c 0,-0.88477 -0.71973,-1.60449 -1.60352,-1.60449 h -2.47363 v -7.79437 c 4.71753,-1.41583 8.11621,-5.97369 8.11621,-11.21051 v -4.13672 c 0,-0.27637 -0.22363,-0.5 -0.5,-0.5 -0.27637,0 -0.5,0.22363 -0.5,0.5 v 4.13672 c 0,9.09817 -10.29419,14.02741 -17.06152,8.17773 -2.2793,-1.96875 -3.58691,-4.82129 -3.58691,-7.8252 V 38.8872 c 0,-0.27637 -0.22363,-0.5 -0.5,-0.5 -0.27637,0 -0.5,0.22363 -0.5,0.5 v 4.48926 c 0,3.29493 1.43359,6.42286 3.93262,8.58204 z M 40.7832,63.6333 v 1.86719 H 28.21191 V 63.6333 c 0,-0.33301 0.27148,-0.60449 0.60449,-0.60449 4.1902,0 7.19254,0 11.36328,0 0.33302,0 0.60352,0.27148 0.60352,0.60449 z m -4.07715,-9.15112 v 7.54663 h -4.41602 v -7.54993 c 0.72998,0.1452 1.47473,0.22668 2.22754,0.22668 1.04502,1e-5 1.65596,-0.11824 2.18848,-0.22338 z"
       id="path2"
       style="fill:#e6e6e6" /><path
       d="m 26.38965,27.77783 v 14.75879 c 0,4.46582 3.63379,8.09863 8.09961,8.09863 4.47559,0 8.11621,-3.63281 8.11621,-8.09863 V 27.77783 c 0,-4.60619 -3.75389,-8.11719 -8.11621,-8.11719 -4.46582,0 -8.09961,3.64161 -8.09961,8.11719 z m 15.21582,0 v 2.16309 h -3.4668 c -0.27637,0 -0.5,0.22363 -0.5,0.5 0,0.27637 0.22363,0.5 0.5,0.5 h 3.4668 v 3.71094 h -3.4668 c -0.27637,0 -0.5,0.22363 -0.5,0.5 0,0.27637 0.22363,0.5 0.5,0.5 h 3.4668 v 3.71094 h -3.4668 c -0.27637,0 -0.5,0.22363 -0.5,0.5 0,0.27637 0.22363,0.5 0.5,0.5 h 3.4668 v 2.17383 c 0,3.91406 -3.19238,7.09863 -7.11621,7.09863 -3.91504,0 -7.09961,-3.18457 -7.09961,-7.09863 V 40.3628 h 3.33301 c 0.27637,0 0.5,-0.22363 0.5,-0.5 0,-0.27637 -0.22363,-0.5 -0.5,-0.5 h -3.33301 v -3.71094 h 3.33301 c 0.27637,0 0.5,-0.22363 0.5,-0.5 0,-0.27637 -0.22363,-0.5 -0.5,-0.5 h -3.33301 v -3.71094 h 3.33301 c 0.27637,0 0.5,-0.22363 0.5,-0.5 0,-0.27637 -0.22363,-0.5 -0.5,-0.5 h -3.33301 v -2.16309 c 0,-3.9248 3.18457,-7.11719 7.09961,-7.11719 3.81395,0 7.11621,3.06932 7.11621,7.11719 z"
       id="path4"
       style="fill:#e6e6e6" /><path
       d="m 6.56055,30.43994 c 0,13.74941 9.83134,25.01706 22.7168,27.46191 0.03125,0.0059 0.0625,0.0088 0.09375,0.0088 0.23535,0 0.44434,-0.16699 0.49023,-0.40723 C 29.91309,57.2329 29.73438,56.97118 29.46289,56.91943 17.02127,54.55676 7.56055,43.68022 7.56055,30.43994 c 0,-14.88993 12.01762,-26.94043 26.93555,-26.94043 14.86684,0 26.94336,11.9926 26.94336,26.94043 0,7.20898 -2.80078,13.97559 -7.88477,19.05469 -3.84961,3.84961 -8.69727,6.41699 -14.01758,7.4248 -0.27148,0.05176 -0.4502,0.3125 -0.39844,0.58398 0.05078,0.27246 0.31641,0.44922 0.58398,0.39844 5.51953,-1.04492 10.54688,-3.70801 14.53906,-7.7002 5.27344,-5.26758 8.17774,-12.28613 8.17774,-19.76172 C 62.43945,14.95749 49.93451,2.4995 34.49609,2.4995 19.0508,2.49951 6.56055,14.97025 6.56055,30.43994 Z"
       id="path6"
       style="fill:#e6e6e6" /><path
       d="m 34.49902,9.55322 c 11.54741,0 20.88769,9.32462 20.88769,20.8877 0,5.58887 -2.17187,10.83887 -6.11523,14.78223 -0.85449,0.85449 -1.76367,1.61621 -2.70215,2.26563 -0.22754,0.15723 -0.28418,0.46875 -0.12695,0.69531 0.09668,0.14063 0.25293,0.21582 0.41113,0.21582 0.09863,0 0.19727,-0.02832 0.28418,-0.08887 0.98828,-0.68262 1.94434,-1.4834 2.84082,-2.38086 4.13184,-4.13184 6.4082,-9.63281 6.4082,-15.48926 0,-12.09847 -9.77075,-21.8877 -21.88769,-21.8877 -21.08429,0 -30.05834,27.30681 -12.76465,39.68164 0.22168,0.15723 0.53711,0.10938 0.69824,-0.11621 0.16016,-0.22461 0.1084,-0.53711 -0.11621,-0.69824 C 5.81648,35.62736 14.36903,9.55322 34.49902,9.55322 Z"
       id="path8"
       style="fill:#e6e6e6" /><path
       d="m 34.48828,15.59424 c 0.0029,0 0.0049,0 0.0078,0 11.87236,0 18.85168,13.22215 12.39941,23.01563 -0.15137,0.23145 -0.08789,0.54102 0.14258,0.69336 0.08496,0.05566 0.18066,0.08203 0.27539,0.08203 0.16211,0 0.32129,-0.0791 0.41797,-0.22461 6.88603,-10.45638 -0.56595,-24.56641 -13.23535,-24.56641 -0.0029,0 -0.0059,0 -0.0088,0 -12.58843,0.0058 -20.1481,14.08425 -13.23047,24.56641 0.15137,0.23047 0.46094,0.29395 0.69238,0.1416 0.23047,-0.15137 0.29395,-0.46191 0.1416,-0.69238 -6.45907,-9.78911 0.56043,-23.01272 12.39747,-23.01563 z"
       id="path10"
       style="fill:#e6e6e6" /></g></svg>
