<?xml version="1.0" encoding="UTF-8"?>
<svg width="23px" height="16.9017341px" viewBox="0 0 23 16.9017341" version="1.1" xmlns="http://www.w3.org/2000/svg" xmlns:xlink="http://www.w3.org/1999/xlink">
    <title>Path</title>
    <g id="Podcasts" stroke="none" stroke-width="1" fill="none" fill-rule="evenodd">
        <g id="Liste-podcasts" transform="translate(-332, -545,8439)" fill="#FFFA01" fill-rule="nonzero">
            <g id="Group-Copy-4" transform="translate(35, 516,8844)">
                <g id="noun-arrow-1920819" transform="translate(297, 28,9595)">
                    <path d="M22.5651261,7.55309121 L15.1964286,0.370884447 C14.6890756,-0.123628149 13.8676471,-0.123628149 13.3844538,0.370884447 C12.8771008,0.865397044 12.8771008,1.66603649 13.3844538,2.13700086 L18.5787815,7.19986792 L1.28046218,7.19986792 C0.579831933,7.19986792 0,7.76502518 0,8.44792352 C0,9.13082187 0.579831933,9.69597913 1.28046218,9.69597913 L18.5546218,9.69597913 L13.3844538,14.7588462 C12.8771008,15.2533588 12.8771008,16.0539982 13.3844538,16.5249626 C13.6260504,16.7604448 13.9642857,16.9017341 14.302521,16.9017341 C14.6407563,16.9017341 14.9548319,16.783993 15.2205882,16.5249626 L22.6134454,9.31920762 C22.855042,9.08372543 23,8.75405037 23,8.42437531 C22.9516807,8.11824846 22.8067227,7.7885734 22.5651261,7.55309121 Z" id="Path"></path>
                </g>
            </g>
        </g>
    </g>
</svg>