<?xml version="1.0" encoding="UTF-8" standalone="no"?>
<svg
   width="22"
   height="22.008343"
   viewBox="0 0 22 22.008343"
   version="1.1"
   id="svg7"
   sodipodi:docname="tab_bar_icon_favorite_selected.svg"
   inkscape:version="1.2.2 (b0a8486, 2022-12-01)"
   inkscape:export-filename="../../../../../../../../../../../Downloads/CenteredCollectionView-master/tab_bar_icon_favorite_selected.svg"
   inkscape:export-xdpi="96"
   inkscape:export-ydpi="96"
   xmlns:inkscape="http://www.inkscape.org/namespaces/inkscape"
   xmlns:sodipodi="http://sodipodi.sourceforge.net/DTD/sodipodi-0.dtd"
   xmlns="http://www.w3.org/2000/svg"
   xmlns:svg="http://www.w3.org/2000/svg">
  <defs
     id="defs11" />
  <sodipodi:namedview
     id="namedview9"
     pagecolor="#ffffff"
     bordercolor="#000000"
     borderopacity="0.25"
     inkscape:showpageshadow="2"
     inkscape:pageopacity="0.0"
     inkscape:pagecheckerboard="0"
     inkscape:deskcolor="#d1d1d1"
     showgrid="false"
     inkscape:zoom="10.255161"
     inkscape:cx="11.506401"
     inkscape:cy="11.506401"
     inkscape:window-width="1440"
     inkscape:window-height="900"
     inkscape:window-x="0"
     inkscape:window-y="0"
     inkscape:window-maximized="0"
     inkscape:current-layer="svg7" />
  <title
     id="title2">select 2</title>
  <g
     id="Favoris"
     stroke="none"
     stroke-width="1"
     fill="none"
     fill-rule="evenodd"
     transform="scale(0.95652174)">
    <g
       id="select"
       transform="translate(0.5,0.5)"
       fill="#144d93"
       stroke="#144d93">
      <path
         d="M 12.59812,1.1289292 C 13.630514,0.30306619 14.803505,0 16.115022,0 17.680619,0 19.169011,0.61749291 20.275771,1.7242194 21.382531,2.830933 22,4.3193204 22,5.8848588 c 0,2.9945895 -1.605234,5.8047352 -3.351898,8.1335392 -1.024086,1.365418 -2.161365,2.654044 -3.327885,3.898824 -1.129889,1.205634 -2.296427,2.377084 -3.464682,3.54561 l -0.311088,0.311131 c -0.0017,0.0017 -0.0035,0.0035 -0.0052,0.0052 L 11.129609,21.981316 11,22 C 10.758184,22.04359 10.63572,21.9591 10.45134,21.769701 9.196747,20.480924 7.9257643,19.210975 6.6930474,17.904638 5.5228561,16.664547 4.3755441,15.383241 3.3518812,14.018379 1.6052171,11.68954 0,8.8794298 0,5.8848402 0,4.3193019 0.61747352,2.8309317 1.7242291,1.7242009 2.8309891,0.61747005 4.3193984,0 5.8849779,0 7.1964782,0 8.3694733,0.30304734 9.4018454,1.1289106 10.048272,1.6460363 10.563746,2.3104976 10.999982,3.0158747 11.43622,2.3105161 11.951694,1.6460376 12.59812,1.1289292 Z M 8.442194,2.3291158 C 7.6927677,1.7296113 6.8319861,1.5399864 5.88498,1.5399864 c -1.1565689,0 -2.2542574,0.455512 -3.0718557,1.2731061 -0.8176112,0.8175724 -1.2731395,1.9152363 -1.2731395,3.0717749 0,2.6249891 1.5146835,5.1749666 3.0418288,7.2111016 0.9597571,1.279641 2.0258959,2.489235 3.1172347,3.65761 1.0759696,1.151919 2.1868705,2.271659 3.3009337,3.386861 1.114063,-1.115202 2.224981,-2.234942 3.300933,-3.386861 1.091339,-1.168375 2.157491,-2.377965 3.117248,-3.65761 1.527162,-2.036165 3.041846,-4.5861341 3.041846,-7.2111016 0,-1.1565386 -0.455524,-2.2541982 -1.27314,-3.0717749 C 18.369275,1.99552 17.271582,1.5399864 16.115013,1.5399864 c -0.947001,0 -1.807817,0.1896249 -2.557248,0.7891294 C 12.726329,2.9942413 12.137761,3.9438192 11.70905,4.9057724 11.63421,5.0737263 11.509723,5.2121502 11.344314,5.2948352 10.96414,5.4849173 10.501313,5.3306372 10.311261,4.9504514 L 10.199448,4.7268277 C 9.7559891,3.8650033 9.191314,2.9283831 8.442194,2.3291158 Z"
         id="path398" />
    </g>
  </g>
</svg>
