<?xml version="1.0" encoding="UTF-8" standalone="no"?>
<svg
   xml:space="preserve"
   style="shape-rendering:geometricPrecision;text-rendering:geometricPrecision;image-rendering:optimizeQuality;"
   viewBox="0 0 6.82666 8.533325000000001"
   x="0px"
   y="0px"
   fill-rule="evenodd"
   clip-rule="evenodd"
   version="1.1"
   id="svg406"
   sodipodi:docname="noun-favorite-3001731 copie.svg"
   inkscape:version="1.2.2 (b0a8486, 2022-12-01)"
   xmlns:inkscape="http://www.inkscape.org/namespaces/inkscape"
   xmlns:sodipodi="http://sodipodi.sourceforge.net/DTD/sodipodi-0.dtd"
   xmlns="http://www.w3.org/2000/svg"
   xmlns:svg="http://www.w3.org/2000/svg"><sodipodi:namedview
     id="namedview408"
     pagecolor="#ffffff"
     bordercolor="#000000"
     borderopacity="0.25"
     inkscape:showpageshadow="2"
     inkscape:pageopacity="0.0"
     inkscape:pagecheckerboard="0"
     inkscape:deskcolor="#d1d1d1"
     showgrid="false"
     inkscape:zoom="47.258646"
     inkscape:cx="2.5180577"
     inkscape:cy="3.2480829"
     inkscape:window-width="1440"
     inkscape:window-height="847"
     inkscape:window-x="0"
     inkscape:window-y="25"
     inkscape:window-maximized="0"
     inkscape:current-layer="g400" /><defs
     id="defs394"><style
       type="text/css"
       id="style392">
   
    .fil0 {fill:none}
    .fil1 {fill:black}
   
  </style></defs><rect
     class="fil0"
     width="6.82666"
     height="6.82666"
     id="rect396" /><g
     id="g400"><path
       class="fil1"
       d="M 3.41333,1.56287 C 3.51446,1.399342 3.63396,1.245295 3.783818,1.125413 4.023153,0.933952 4.295082,0.863696 4.599125,0.863696 c 0.362945,0 0.707992,0.14315 0.964567,0.399724 0.256575,0.256571 0.39972,0.601626 0.39972,0.964567 0,0.69424 -0.372134,1.34572 -0.777055,1.88561 C 4.948948,4.430144 4.685298,4.728888 4.414869,5.017467 4.152932,5.296971 3.882499,5.56855 3.611668,5.839451 l 7.9e-6,3.9e-6 -0.072126,0.072126 c -4.016e-4,4.016e-4 -8.071e-4,8.032e-4 -0.00121,0.0012 l -0.09496,0.046871 0.00148,0.00148 c -0.056059,0.010106 -0.115976,-0.00663 -0.15872,-0.050539 l -4.134e-4,-4.252e-4 c -0.290433,-0.298354 -0.585079,-0.592768 -0.870854,-0.895618 -0.27128,-0.287492 -0.537256,-0.584539 -0.774567,-0.900957 -0.404921,-0.539898 -0.77705101,-1.19137 -0.77705101,-1.88561 0,-0.362941 0.14314601,-0.707992 0.39972001,-0.964567 0.256575,-0.256575 0.601626,-0.39972397 0.964567,-0.39972397 0.304039,0 0.575969,0.0702559 0.815299,0.26171697 0.149858,0.119886 0.269358,0.273929 0.3704885,0.4374576 z M 3.227747,1.95952 C 3.12494,1.759721 2.994034,1.542583 2.820369,1.403654 2.646633,1.26467 2.447082,1.220709 2.227542,1.220709 c -0.268122,0 -0.522594,0.105602 -0.712134,0.295146 -0.189543,0.189539 -0.295146,0.444012 -0.295146,0.712134 0,0.608555 0.351142,1.19972 0.705173,1.67176 C 2.147931,4.19641 2.395089,4.476832 2.648089,4.747698 2.897526,5.014749 3.155061,5.27434 3.413329,5.532879 3.671597,5.27434 3.929136,5.014749 4.178569,4.747698 4.431569,4.476832 4.67873,4.196411 4.901226,3.899749 5.255261,3.427702 5.606403,2.836539 5.606403,2.227989 5.606403,1.959867 5.500801,1.705395 5.311257,1.515855 5.121718,1.326316 4.867245,1.220709 4.599123,1.220709 c -0.219539,0 -0.419098,0.043961 -0.592835,0.182945 -0.192748,0.154197 -0.329193,0.374339 -0.428579,0.59735 -0.01735,0.038937 -0.046209,0.071028 -0.084555,0.090197 -0.088134,0.044067 -0.195429,0.0083 -0.239488,-0.079839 l -0.025921,-0.051843 z"
       id="path398"
       style="fill:#144d93;fill-opacity:1"
       sodipodi:nodetypes="csscsccccscccssccscsccccscsssccsscscccccc" /><path
       style="fill:#144d93;fill-opacity:1;stroke-width:0.0388386"
       d="M 2.8304871,5.0070016 C 1.8569,3.962575 1.4705469,3.425622 1.2358667,2.7908016 1.1375556,2.5248651 1.1130499,2.3984519 1.1112881,2.1481591 1.1087382,1.7858893 1.1639545,1.6295718 1.3790399,1.3901531 1.5785904,1.1680267 1.7862571,1.0693331 2.1020634,1.0465357 2.5653071,1.0130951 2.83946,1.1877791 3.1433097,1.7099936 3.272751,1.932459 3.312395,1.9728011 3.4010745,1.9722963 3.5445935,1.9714795 3.5726435,1.9461981 3.7025652,1.7005632 3.9560585,1.2212987 4.2931313,1.0132584 4.7615469,1.0469624 5.5130486,1.1010361 5.9144838,1.791845 5.6752739,2.6193477 5.4799494,3.295035 5.0007787,3.9741567 3.9110301,5.1197843 l -0.492638,0.5178989 z"
       id="path2263" /></g><text
     x="0"
     y="21.82666"
     fill="#000000"
     font-size="5px"
     font-weight="bold"
     font-family="'Helvetica Neue', Helvetica, Arial-Unicode, Arial, Sans-serif"
     id="text402">Created by Grafix Point</text><text
     x="0"
     y="26.82666"
     fill="#000000"
     font-size="5px"
     font-weight="bold"
     font-family="'Helvetica Neue', Helvetica, Arial-Unicode, Arial, Sans-serif"
     id="text404">from the Noun Project</text></svg>
