<?xml version="1.0" encoding="UTF-8"?>
<svg width="26px" height="24px" viewBox="0 0 26 24" version="1.1" xmlns="http://www.w3.org/2000/svg" xmlns:xlink="http://www.w3.org/1999/xlink">
    <title>g400</title>
    <g id="Player-audio" stroke="none" stroke-width="1" fill="none" fill-rule="evenodd">
        <g id="Du-sport_1" transform="translate(-341.000000, -467.000000)" fill="#FFFFFF">
            <g id="g400" transform="translate(341.000000, 467.000000)">
                <path d="M12.9999835,3.29006254 C13.5155322,2.52056301 14.1247291,1.79567741 14.8886875,1.23155908 C16.108789,0.330617658 17.4950509,0 19.0450262,0 C20.8952769,0 22.6542857,0.673628631 23.9622747,1.88096665 C25.2702637,3.08829055 26,4.71198593 26,6.41984592 C26,9.68667087 24.1029049,12.7522838 22.0386655,15.2927973 C20.8283825,16.7823451 19.4843259,18.1881188 18.1057109,19.54606 C16.770387,20.8612977 15.3917516,22.1392435 14.0110871,23.4139988 L14.0111274,23.4140172 L13.6434376,23.7534142 C13.6413903,23.755304 13.6393231,23.7571938 13.6372691,23.759061 L13.1531743,23.9796178 L13.1607192,23.9865821 C12.874937,24.034137 12.5694872,23.9553839 12.3515834,23.7487651 L12.3494759,23.7467643 C10.8688828,22.3428257 9.36681233,20.9574273 7.90996517,19.5323323 C6.5270118,18.1795061 5.1710976,16.7817178 3.96131418,15.2927771 C1.89707479,12.7522259 0,9.68665063 0,6.41982568 C0,4.7119657 0.729741435,3.08828914 2.03772535,1.88094641 C3.34571437,0.673603692 5.10474357,0 6.95497388,0 C8.50492875,0 9.89119574,0.330597095 11.1112718,1.23153884 C11.8752302,1.795676 12.484427,2.52054278 12.9999784,3.29004513 L12.9999835,3.29006254 Z M12.0539033,5.15654404 C11.5298053,4.21636722 10.862462,3.19459976 9.97713838,2.54085362 C9.0914528,1.88684867 8.07416539,1.6799852 6.95497643,1.6799852 C5.58812217,1.6799852 4.290854,2.17690737 3.32460149,3.06882813 C2.35833369,3.96072536 1.81998208,5.15817689 1.81998208,6.41985533 C1.81998208,9.28347981 3.61006248,12.0652737 5.41487066,14.2865114 C6.54912896,15.6824833 7.80911122,17.0020408 9.09887531,18.2766314 C10.3704756,19.5332701 11.6833586,20.754805 12.9999784,21.9713895 C14.3165981,20.754805 15.6295015,19.5332701 16.9010814,18.2766314 C18.1908455,17.0020408 19.4508431,15.682488 20.5851014,14.2865114 C22.3899299,12.0652407 24.1800103,9.28345628 24.1800103,6.41985533 C24.1800103,5.15817689 23.6416638,3.96073007 22.6753909,3.06882813 C21.7091435,2.1769309 20.4118702,1.6799852 19.045016,1.6799852 C17.9258321,1.6799852 16.9085039,1.88684867 16.0228132,2.54085362 C15.0402067,3.26644507 14.3446262,4.30234818 13.8379682,5.3517517 C13.7495199,5.53497416 13.6024001,5.685982 13.4069168,5.7761839 C12.9576201,5.98354616 12.4106428,5.81524049 12.1860353,5.40049244 L12.0538931,5.15653933 L12.0539033,5.15654404 Z" id="path398"></path>
                <path d="M9.90612183,19.9804854 C4.86280517,14.9800836 2.86144235,12.4093135 1.64576625,9.36998351 C1.13650107,8.09675919 1.00955814,7.49153065 1.00043177,6.29320368 C0.987222933,4.55876438 1.27325105,3.810363 2.38742335,2.66409797 C3.42112271,1.60062329 4.49686512,1.12810789 6.1327857,1.01896077 C8.53245252,0.858857193 9.9526027,1.69519187 11.5265864,4.1953985 C12.1971104,5.26049621 12.4024718,5.4536421 12.861844,5.45122527 C13.6052923,5.44731467 13.7505953,5.3262749 14.4236077,4.15024857 C15.7367383,1.85567367 17.4828223,0.859639024 19.9092803,1.02100368 C23.8021637,1.27989236 25.8816539,4.58727849 24.6425133,8.54911359 C23.6307052,11.784102 21.1485343,15.0355333 15.5034849,20.5204552 L12.9515515,23 L9.90612183,19.9804854 Z" id="path2263"></path>
            </g>
        </g>
    </g>
</svg>