<?xml version="1.0" encoding="UTF-8" standalone="no"?>
<svg
   width="22"
   height="22"
   viewBox="0 0 22 22"
   version="1.1"
   id="svg4961"
   sodipodi:docname="tab_bar_icon_favorite_unselected.svg"
   inkscape:export-filename="un_select.svg"
   inkscape:export-xdpi="96"
   inkscape:export-ydpi="96"
   inkscape:version="1.2.2 (b0a8486, 2022-12-01)"
   xmlns:inkscape="http://www.inkscape.org/namespaces/inkscape"
   xmlns:sodipodi="http://sodipodi.sourceforge.net/DTD/sodipodi-0.dtd"
   xmlns="http://www.w3.org/2000/svg"
   xmlns:svg="http://www.w3.org/2000/svg">
  <defs
     id="defs4965" />
  <sodipodi:namedview
     id="namedview4963"
     pagecolor="#ffffff"
     bordercolor="#000000"
     borderopacity="0.25"
     inkscape:showpageshadow="2"
     inkscape:pageopacity="0.0"
     inkscape:pagecheckerboard="0"
     inkscape:deskcolor="#d1d1d1"
     showgrid="false"
     inkscape:zoom="10.727273"
     inkscape:cx="11"
     inkscape:cy="11.09322"
     inkscape:window-width="1440"
     inkscape:window-height="608"
     inkscape:window-x="0"
     inkscape:window-y="25"
     inkscape:window-maximized="0"
     inkscape:current-layer="svg4961" />
  <title
     id="title4954">select</title>
  <g
     id="Podcasts"
     stroke="none"
     stroke-width="1"
     fill="none"
     fill-rule="evenodd"
     fill-opacity="0.65"
     transform="matrix(0.93625625,0,0,0.93625625,0.62067049,0.62067049)">
    <g
       id="Détails-podcast_2"
       transform="translate(-292,-846)"
       fill="#144d93">
      <g
         id="Group-3"
         transform="translate(21,821)">
        <g
           id="select"
           transform="translate(271,25)">
          <path
             d="M 10.999986,3.0158907 C 11.43622,2.3105161 11.951694,1.6460376 12.59812,1.1289292 13.630514,0.30306619 14.803505,0 16.115022,0 17.680619,0 19.169011,0.61749291 20.275771,1.7242194 21.382531,2.830933 22,4.3193204 22,5.8848588 c 0,2.9945895 -1.605234,5.8047352 -3.351898,8.1335392 -1.024086,1.365418 -2.161365,2.654044 -3.327885,3.898824 -1.129889,1.205634 -2.296427,2.377084 -3.464682,3.54561 l -0.723217,0.253155 0.412129,0.05798 -0.0052,0.0052 -0.409619,0.202177 0.223375,-0.06593 c -0.241815,0.04359 -0.717248,0.04373 -0.901628,-0.145674 l -0.0018,-0.0018 C 9.196747,20.480924 7.9257643,19.210975 6.6930474,17.904638 5.5228561,16.664547 4.3755441,15.383241 3.3518812,14.018379 1.6052171,11.68954 0,8.8794298 0,5.8848402 0,4.3193019 0.61747352,2.8309317 1.7242291,1.7242009 2.8309891,0.61747005 4.3193984,0 5.8849779,0 7.1964782,0 8.3694733,0.30304734 9.4018454,1.1289106 10.048272,1.6460363 10.563746,2.3104976 10.999982,3.0158747 Z M 10.199457,4.726832 C 9.7559891,3.8650033 9.191314,2.9283831 8.442194,2.3291158 7.6927677,1.7296113 6.8319861,1.5399864 5.88498,1.5399864 c -1.1565689,0 -2.2542574,0.455512 -3.0718557,1.2731061 -0.8176112,0.8175724 -1.2731395,1.9152363 -1.2731395,3.0717749 0,2.6249891 1.5146835,5.1749666 3.0418288,7.2111016 0.9597571,1.279641 2.0258959,2.489235 3.1172347,3.65761 1.0759696,1.151919 2.1868705,2.271659 3.3009337,3.386861 1.114063,-1.115202 2.224981,-2.234942 3.300933,-3.386861 1.091339,-1.168375 2.157491,-2.377965 3.117248,-3.65761 1.527162,-2.036165 3.041846,-4.5861341 3.041846,-7.2111016 0,-1.1565386 -0.455524,-2.2541982 -1.27314,-3.0717749 C 18.369275,1.99552 17.271582,1.5399864 16.115013,1.5399864 c -0.947001,0 -1.807817,0.1896249 -2.557248,0.7891294 C 12.726329,2.9942413 12.137761,3.9438192 11.70905,4.9057724 11.63421,5.0737263 11.509723,5.2121502 11.344314,5.2948352 10.96414,5.4849173 10.501313,5.3306372 10.311261,4.9504514 L 10.199448,4.7268277 Z"
             id="path398"
             style="fill:#648ab6;fill-opacity:1;stroke:#648ab6;stroke-opacity:0.00355872"
             sodipodi:nodetypes="csscsccccccccccccscscccccscsssccsscscccccc" />
        </g>
      </g>
    </g>
  </g>
</svg>
