<?xml version="1.0" encoding="UTF-8"?>
<svg width="16px" height="9px" viewBox="0 0 16 9" version="1.1" xmlns="http://www.w3.org/2000/svg" xmlns:xlink="http://www.w3.org/1999/xlink">
    <title>noun-chevron-5784096 copy</title>
    <g id="Player-audio" stroke="none" stroke-width="1" fill="none" fill-rule="evenodd">
        <g id="A-bientot-de-te-revoir_2" transform="translate(-38,5, -71,5)" fill="#FFFFFF">
            <g id="Group" transform="translate(30, 59)">
                <g id="noun-chevron-5784096-copy" transform="translate(16,5, 17) scale(1, -1) rotate(90) translate(-16,5, -17)translate(12, 9)">
                    <path d="M-3.16003373,3.82126701 C-2.71085137,3.38897286 -1.98725292,3.39352478 -1.54382167,3.83142662 L4.5,9.79994858 L10.5438266,3.83142662 C10.9872578,3.39352478 11.7108492,3.38897286 12.1600404,3.82126701 C12.6092139,4.25354385 12.6138894,4.95897064 12.1704582,5.39687248 L5.31331826,12.1685751 C5.09858042,12.3806289 4.80565588,12.5 4.5,12.5 C4.19434902,12.5 3.90142448,12.3806289 3.68668664,12.1685751 L-3.17046218,5.39687248 C-3.61388632,4.95897064 -3.60921787,4.25354385 -3.16003373,3.82126701 Z" id="Path" transform="translate(4,5, 8) rotate(90) translate(-4,5, -8)"></path>
                </g>
            </g>
        </g>
    </g>
</svg>