<?xml version="1.0" encoding="UTF-8"?>
<svg width="22.9787676px" height="22.978017px" viewBox="0 0 22.9787676 22.978017" version="1.1" xmlns="http://www.w3.org/2000/svg" xmlns:xlink="http://www.w3.org/1999/xlink">
    <title>path4</title>
    <g id="Favoris" stroke="none" stroke-width="1" fill="none" fill-rule="evenodd">
        <g transform="translate(-62.510252, -709.510992)" fill="#144D93" fill-rule="nonzero" id="Group-3" stroke="#144D93" stroke-width="0.978017">
            <g transform="translate(21.000000, 685.000000)">
                <path d="M63.8127613,35.5183513 L61.864969,33.4533062 L61.864969,33.4533062 L53.4797878,25.1724775 C53.449338,25.1491853 53.416993,25.1284634 53.3830885,25.1105268 C53.3425971,25.0781664 53.2985747,25.0504576 53.2518549,25.0279251 C53.215076,25.0249833 53.1781197,25.0249833 53.1413407,25.0279251 C53.0458645,24.9906916 52.9398138,24.9906916 52.8443376,25.0279251 C52.807559,25.0249834 52.7706029,25.0249834 52.7338242,25.0279251 C52.6871044,25.0504576 52.643082,25.0781664 52.6025906,25.1105268 C52.5686861,25.1284634 52.5363411,25.1491853 52.5058913,25.1724775 L44.1276179,33.4326558 L44.1276179,33.4326558 L44.1276179,33.4326558 L42.1936388,35.4977008 C41.9287617,35.7714561 41.936604,36.2073375 42.2111583,36.4714537 C42.4857126,36.7355699 42.9230916,36.727983 43.1882567,36.4545047 L43.927313,35.6629044 L43.927313,46.3116519 C43.9273131,46.691816 44.236553,47 44.6180198,47 L50.924173,47 C51.3056395,47 51.6148791,46.6918158 51.6148791,46.3116519 L51.6148791,38.7398212 L54.377706,38.7398212 L54.377706,46.3116519 C54.377706,46.4942133 54.4504768,46.6692975 54.5800096,46.7983878 C54.7095425,46.9274781 54.8852266,47 55.0684136,47 L61.3745666,47 C61.7560335,47 62.0652735,46.6918161 62.0652735,46.3116519 L62.0652735,35.6697879 L62.8043297,36.4613889 C62.9733643,36.6409127 63.2256618,36.7169286 63.466184,36.6608021 C63.7067063,36.6046756 63.8989123,36.4249336 63.9703999,36.1892833 C64.0418874,35.9536329 63.981796,35.6978751 63.8127613,35.5183513 L63.8127613,35.5183513 Z M55.7591205,45.6233031 L55.7591205,38.0514724 C55.75912,37.6713084 55.4498801,37.3631249 55.0684136,37.3631249 L50.924173,37.3631249 C50.5427064,37.3631249 50.2334665,37.6713084 50.2334661,38.0514724 L50.2334661,45.6233031 L45.3087266,45.6233031 L45.3087266,34.2104892 L52.9962929,26.6317757 L60.6838598,34.2036064 L60.6838598,45.6233031 L55.7591205,45.6233031 Z" id="path4"></path>
            </g>
        </g>
    </g>
</svg>