<?xml version="1.0" encoding="UTF-8"?>
<svg width="22.999989px" height="23px" viewBox="0 0 22.999989 23" version="1.1" xmlns="http://www.w3.org/2000/svg" xmlns:xlink="http://www.w3.org/1999/xlink">
    <title>podcast non select (1)</title>
    <g id="Favoris" stroke="none" stroke-width="1" fill="none" fill-rule="evenodd">
        <g transform="translate(-183.500002, -697.500000)" fill="#144D93" fill-rule="nonzero" id="Group-3" stroke="#144D93">
            <g transform="translate(21.000000, 685.000000)">
                <g id="podcast-non-select-(1)" transform="translate(163.000000, 13.000000)">
                    <path d="M21.2325024,8.01546407 C20.2736175,4.15504916 18.3970793,0 16.543301,0 C16.4516016,0 16.3599023,0.0105914277 16.2718313,0.0311323783 C15.8677604,0.126134275 15.546153,0.42558282 15.3099777,0.911825635 C15.2849088,0.931082777 15.2575309,0.945846585 15.2367501,0.971522773 C14.1990301,2.26239314 10.4828973,6.5259242 6.2432866,7.52280221 L3.0041224,8.33609547 C2.99125811,8.33898404 2.97872366,8.34283547 2.96618922,8.3466869 C1.97365917,8.61211449 1.13583055,9.2196773 0.596519607,10.0676334 C0.0324696293,10.9553876 -0.13905434,12.0042599 0.113943515,13.0219998 C0.36694137,14.0394188 1.01180553,14.8966825 1.93011847,15.4355615 C2.84414332,15.9721939 3.92507418,16.1317072 4.97301966,15.8855367 L5.64460198,15.7276282 C5.64460198,15.7276282 5.64493183,15.7276282 5.64526168,15.7276282 L5.64559154,15.7276282 L6.45340346,15.5376244 L9.13379534,20.8965658 C9.48278065,21.5936743 10.2025216,22 10.9509599,22 C11.2468387,22 11.5473355,21.9367724 11.8306799,21.8026143 C12.8304667,21.3285677 13.2480616,20.1516354 12.7611974,19.1785079 L10.5940581,14.8456511 C14.4635728,14.8138768 18.4152212,16.563709 19.3183609,16.9899338 C19.6416176,17.224229 19.9691624,17.3542147 20.2960475,17.3542147 C20.3877469,17.3542147 20.4794462,17.3436233 20.5675172,17.3227614 C21.4231579,17.1215242 21.9149699,16.0145596 21.9898467,14.1212616 C22.0571369,12.421177 21.7883061,10.2528229 21.2325024,8.01546407 L21.2325024,8.01546407 Z M4.77114915,15.0744901 C3.94486541,15.2693082 3.09285307,15.1434949 2.37278225,14.7208006 C1.65238158,14.2981064 1.14572616,13.6247483 0.947484037,12.825577 C0.748912057,12.0264056 0.883162548,11.2022 1.32615619,10.5057334 C1.76255275,9.81857439 2.44963819,9.33104776 3.26305763,9.13173635 L3.54871101,9.06433636 L5.02678583,15.0141511 L4.77114915,15.0744901 Z M11.4553063,21.0522277 C10.880701,21.3243953 10.1843797,21.090742 9.9049935,20.531322 L8.93225468,18.5866717 L11.0462876,17.6575147 L11.9899993,19.5440726 C12.2700452,20.1031716 12.0299116,20.7797392 11.4553063,21.0522277 L11.4553063,21.0522277 Z M10.670914,16.9068071 L8.55688107,17.8359642 L7.30706507,15.3370291 L8.29992497,15.1033758 C8.74555744,14.9987454 9.20141537,14.9297406 9.66189126,14.8893006 L10.670914,16.9068071 Z M8.09805445,14.2923292 L5.86032635,14.8183701 L4.38225153,8.86823447 L6.44548697,8.38199166 C10.0105467,7.54366411 13.1801118,4.57260818 14.885126,2.70081405 C14.8699527,2.87123975 14.8574183,3.04712164 14.8498316,3.2326321 C14.8145373,4.11781869 14.8725915,5.13170717 15.0131093,6.21460041 C15.0150884,6.23000613 15.0111301,6.24476994 15.0147585,6.2604966 C15.0160779,6.26563184 15.0200362,6.26916231 15.0213556,6.27429755 C15.1506583,7.25352318 15.3459317,8.28763166 15.6071759,9.33875062 C15.8631425,10.3693286 16.1850798,11.4204476 16.5538563,12.4083389 C16.5558354,12.427917 16.5512175,12.4465323 16.5561653,12.4661103 C16.570349,12.5229189 16.5980567,12.5713827 16.6320317,12.6153532 C17.0552341,13.7187874 17.5378102,14.7310711 18.0530418,15.5360196 C15.7467041,14.6460187 11.6852144,13.4482245 8.09805445,14.2923292 L8.09805445,14.2923292 Z M15.9301028,6.58273276 C16.5762864,6.75572608 17.3431964,7.61395267 17.6681024,8.9205497 C17.9903695,10.2191229 17.7172506,11.316459 17.2284073,11.7638666 C16.9480316,10.9788171 16.6801903,10.1067896 16.4407165,9.14232778 C16.2233428,8.26741167 16.053798,7.40693841 15.9301028,6.58273276 Z M21.1332164,14.0891664 C21.0708741,15.6525253 20.7030871,16.4324395 20.3659765,16.5117148 C20.3435465,16.517171 20.3204567,16.5194176 20.2960475,16.5194176 C20.2201812,16.5194176 20.1357386,16.49663 20.0440392,16.4526595 C20.0080852,16.4086891 19.9632251,16.3708167 19.9087992,16.3432148 C19.8909871,16.3342281 19.8448075,16.3107986 19.7755382,16.2774195 C19.1550833,15.7796224 18.3175845,14.5198845 17.5394594,12.583258 C18.505931,12.0055437 18.9271543,10.4367286 18.5016429,8.72412686 C18.0738226,7.00253844 16.9569376,5.78837569 15.8169629,5.71616141 C15.7180068,4.82937006 15.6774348,3.99842442 15.7064619,3.26440638 C15.7684744,1.70104747 16.1362614,0.921454206 16.473372,0.842178975 C16.495802,0.836722785 16.5188918,0.834476118 16.543301,0.834476118 C17.3702444,0.834476118 19.2190749,3.46147113 20.3989619,8.21156596 C20.9369534,10.3763896 21.1975379,12.4635427 21.1332164,14.0891664 L21.1332164,14.0891664 Z" id="path2"></path>
                </g>
            </g>
        </g>
    </g>
</svg>