<?xml version="1.0" encoding="UTF-8"?>
<svg width="25px" height="28.0000857px" viewBox="0 0 25 28.0000857" version="1.1" xmlns="http://www.w3.org/2000/svg" xmlns:xlink="http://www.w3.org/1999/xlink">
    <title>noun-forward-10-4156386</title>
    <g id="Player-audio" stroke="none" stroke-width="1" fill="none" fill-rule="evenodd">
        <g id="A-bientot-de-te-revoir_1" transform="translate(-281.000000, -634.000000)" fill="#FFFA01" fill-rule="nonzero">
            <g id="Group-4" transform="translate(69.000000, 612.000000)">
                <g id="Group-2" transform="translate(197.000000, 8.000000)">
                    <g id="noun-forward-10-4156386" transform="translate(15.000000, 14.000000)">
                        <path d="M12.6191868,0 L12.6191868,2.25381686 L12.3552587,2.25381686 C9.0223315,2.30333061 5.84582099,3.71395782 3.52778536,6.17392799 C1.20974974,8.63389816 -0.0589438743,11.9406573 0.00210551806,15.3633602 C0.123512429,22.2332325 5.66468222,27.9023341 12.3552587,28 L12.5386887,28 C18.9197524,28.0237683 24.2913793,23.1021407 24.9934543,16.5885258 C25.0269741,16.2853922 24.9306694,15.9822485 24.7295262,15.7577442 C24.5281914,15.5263014 24.2399345,15.3945635 23.937742,15.3958867 C23.3958548,15.3967026 22.9411931,15.8157795 22.8820297,16.3689718 C22.234601,22.056351 17.3444881,26.2138426 11.7831446,25.8050568 C6.22180117,25.3962711 1.9580563,20.5659266 2.1059009,14.8418255 C2.2537455,9.11772441 6.76083954,4.5263155 12.3354641,4.42089634 L12.5993922,4.42089634 L12.5993922,6.63405505 L18.1933476,3.31634989 L12.6191868,0 Z" id="Path"></path>
                        <path d="M8.5,11 C8.22385763,11 8,11.2401906 8,11.5364807 L8,20.4635193 C8,20.7598094 8.22385763,21 8.5,21 C8.77614237,21 9,20.7598094 9,20.4635193 L9,11.5364807 C9,11.2401906 8.77614237,11 8.5,11 Z" id="Path"></path>
                        <path d="M14.5,11 C12.5679859,11.0022093 11.0023701,12.4615854 11,14.2624967 L11,17.7375033 C11,19.5393305 12.5670034,21 14.5,21 C16.4329966,21 18,19.5393305 18,17.7375033 L18,14.2624967 C17.9976299,12.4615854 16.4320141,11.0022093 14.5,11 L14.5,11 Z M14.5,19.9347768 C13.2011682,19.9333039 12.148651,18.9522085 12.1470709,17.741513 L12.1470709,14.2665063 C12.1470709,13.0552001 13.2005132,12.0732425 14.5,12.0732425 C15.7994868,12.0732425 16.8529291,13.0552001 16.8529291,14.2665063 L16.8529291,17.741513 C16.851349,18.9522085 15.7988318,19.9333039 14.5,19.9347768 L14.5,19.9347768 Z" id="Shape"></path>
                    </g>
                </g>
            </g>
        </g>
    </g>
</svg>