<?xml version="1.0" encoding="UTF-8"?>
<svg width="15px" height="17px" viewBox="0 0 15 17" version="1.1" xmlns="http://www.w3.org/2000/svg" xmlns:xlink="http://www.w3.org/1999/xlink">
    <title>Shape</title>
    <g id="Podcasts" stroke="none" stroke-width="1" fill="none" fill-rule="evenodd" fill-opacity="0.504623306">
        <g id="Détails-podcast" transform="translate(-172, -465)" fill="#144D93" fill-rule="nonzero">
            <g id="Group-5" transform="translate(36, 400)">
                <g id="noun-time-5546103" transform="translate(136, 65)">
                    <path d="M8.3534073,2.4593288 L8.3534073,1.21428571 L8.957643,1.21428571 C9.29132981,1.21428571 9.5618787,0.942435132 9.5618787,0.607142857 C9.5618787,0.271850582 9.29132981,0 8.957643,0 L6.54070021,0 C6.2070134,0 5.93646451,0.271850582 5.93646451,0.607142857 C5.93646451,0.942435132 6.2070134,1.21428571 6.54070021,1.21428571 L7.14493591,1.21428571 L7.14493591,2.4593288 C5.73351593,2.57717025 4.43911503,3.10382515 3.37207696,3.91963633 L2.35560085,2.7853568 L2.80464713,2.37906318 C3.0527732,2.15464563 3.07283575,1.77073451 2.84949278,1.52171104 C2.62673984,1.27179829 2.24437193,1.25252861 1.99624587,1.47664969 L0.200060868,3.10182407 C-0.0480652594,3.32624161 -0.0681277578,3.71015274 0.155215219,3.9591762 C0.274410137,4.09258164 0.4390408,4.1601737 0.604556487,4.1601737 C0.748534555,4.1601737 0.893102659,4.1085903 1.00846207,4.00423762 L1.45765584,3.59779579 L2.47372627,4.73159355 C1.25271583,6.03603906 0.498343211,7.78646635 0.498343211,9.71428571 C0.498343211,13.7315674 3.75112574,17 7.74917161,17 C11.7472175,17 15,13.7315674 15,9.71428571 C15,5.90192959 12.0691397,2.76953345 8.3534073,2.4593288 Z M7.74917161,15.7857143 C4.41731916,15.7857143 1.70681461,13.0621687 1.70681461,9.71428571 C1.70681461,6.36640274 4.41731916,3.64285714 7.74917161,3.64285714 C11.0810241,3.64285714 13.7915286,6.36640274 13.7915286,9.71428571 C13.7915286,13.0621687 11.0810241,15.7857143 7.74917161,15.7857143 Z M11.1477024,11.6688233 C11.408515,11.8781215 11.4507053,12.2602539 11.2421142,12.522025 C11.1229193,12.6720319 10.9470773,12.75 10.7700551,12.75 C10.6375834,12.75 10.5042268,12.7064209 10.3929978,12.616891 L7.37181934,10.1883196 C7.22843137,10.0732945 7.14493591,9.89868162 7.14493591,9.71428571 L7.14493591,7.28571429 C7.14493591,6.95042201 7.4154848,6.67857143 7.74917161,6.67857143 C8.08285841,6.67857143 8.3534073,6.95042201 8.3534073,7.28571429 L8.3534073,9.42257258 L11.1477024,11.6688233 Z" id="Shape"></path>
                </g>
            </g>
        </g>
    </g>
</svg>