<?xml version="1.0" encoding="UTF-8" standalone="no"?>
<svg
   width="20px"
   height="20px"
   viewBox="0 0 20 20"
   version="1.1"
   id="svg10"
   sodipodi:docname="path398 copie.svg"
   inkscape:version="1.2.2 (b0a8486, 2022-12-01)"
   xmlns:inkscape="http://www.inkscape.org/namespaces/inkscape"
   xmlns:sodipodi="http://sodipodi.sourceforge.net/DTD/sodipodi-0.dtd"
   xmlns="http://www.w3.org/2000/svg"
   xmlns:svg="http://www.w3.org/2000/svg">
  <defs
     id="defs14" />
  <sodipodi:namedview
     id="namedview12"
     pagecolor="#ffffff"
     bordercolor="#000000"
     borderopacity="0.25"
     inkscape:showpageshadow="2"
     inkscape:pageopacity="0.0"
     inkscape:pagecheckerboard="0"
     inkscape:deskcolor="#d1d1d1"
     showgrid="false"
     inkscape:zoom="11.8"
     inkscape:cx="10"
     inkscape:cy="10"
     inkscape:window-width="1440"
     inkscape:window-height="900"
     inkscape:window-x="0"
     inkscape:window-y="0"
     inkscape:window-maximized="0"
     inkscape:current-layer="svg10" />
  <title
     id="title2">path398</title>
  <g
     id="Podcasts"
     stroke="none"
     stroke-width="1"
     fill="none"
     fill-rule="evenodd">
    <g
       id="Détails-podcast_1"
       transform="translate(-124, -782)"
       fill="#144D93">
      <g
         id="Group-6"
         transform="translate(28, 375)">
        <g
           id="Group-5-Copy-2"
           transform="translate(0, 345)">
          <g
             id="g400"
             transform="translate(96, 62)">
            <path
               d="M9.99998727,2.74171878 C10.3965633,2.10046918 10.8651762,1.49639784 11.4528365,1.02629923 C12.3913762,0.275514715 13.4577315,0 14.6500201,0 C16.0732899,0 17.4263736,0.561357193 18.432519,1.56747221 C19.4386644,2.57357546 20,3.92665494 20,5.3498716 C20,8.07222572 18.540696,10.6269032 16.9528196,12.7439978 C16.0218327,13.9852876 14.987943,15.1567657 13.9274699,16.2883833 C12.9002977,17.3844148 11.8398089,18.4493696 10.7777593,19.5116657 L10.7777903,19.511681 L10.494952,19.7945119 C10.4933771,19.7960867 10.491787,19.7976615 10.490207,19.7992175 L10.1178264,19.9830148 L10.1236301,19.9888184 C9.9037977,20.0284475 9.66883633,19.9628199 9.50121797,19.7906376 L9.49959685,19.7889702 C8.36067908,18.6190214 7.20524026,17.4645227 6.08458859,16.2769436 C5.02077831,15.1495885 3.97776738,13.9847649 3.04716475,12.7439809 C1.4592883,10.6268549 0,8.07220886 0,5.34985473 C0,3.92663808 0.561339565,2.57357428 1.56748104,1.56745535 C2.57362644,0.56133641 3.92672582,0 5.34997991,0 C6.54225289,0 7.60861211,0.275497579 8.54713215,1.02628237 C9.13479243,1.49639666 9.60340541,2.10045232 9.99998335,2.74170427 L9.99998727,2.74171878 Z M9.27223328,4.29712003 C8.86908103,3.51363935 8.35574002,2.66216647 7.67472183,2.11737802 C6.99342523,1.57237389 6.21089646,1.39998767 5.34998187,1.39998767 C4.29855552,1.39998767 3.30065692,1.81408948 2.55738576,2.55735678 C1.81410284,3.30060447 1.39998621,4.29848074 1.39998621,5.34987944 C1.39998621,7.73623317 2.77697114,10.0543947 4.16528512,11.9054261 C5.03779151,13.0687361 6.00700863,14.1683673 6.99913486,15.2305262 C7.97728896,16.2777251 8.98719895,17.2956708 9.99998335,18.3094913 C11.0127678,17.2956708 12.0226934,16.2777251 13.0008319,15.2305262 C13.9929581,14.1683673 14.962187,13.06874 15.8346933,11.9054261 C17.223023,10.0543673 18.6000079,7.73621357 18.6000079,5.34987944 C18.6000079,4.29848074 18.1858952,3.30060839 17.4426084,2.55735678 C16.6993412,1.81410908 15.7014386,1.39998767 14.6500123,1.39998767 C13.7891016,1.39998767 13.0065415,1.57237389 12.325241,2.11737802 C11.5693898,2.72203756 11.0343279,3.58529015 10.6445909,4.45979308 C10.5765538,4.61247847 10.4633847,4.73831833 10.3130129,4.81348658 C9.96740005,4.98628847 9.54664833,4.84603374 9.37387328,4.50041037 L9.27222544,4.29711611 L9.27223328,4.29712003 Z"
               id="path398" />
          </g>
        </g>
      </g>
    </g>
  </g>
  <path
     style="fill:#144d93;fill-opacity:1;stroke-width:0.0885653"
     d="M 8.3127908,16.930326 C 4.4007782,12.80116 2.7024785,10.540428 1.7880064,8.2447015 0.73792761,5.6085435 0.91154533,3.6927695 2.3304567,2.2590701 3.4028915,1.1754582 4.8212871,0.7769006 6.2590016,1.1551813 7.3286711,1.4366245 8.1029979,2.1150983 8.8242248,3.4028586 9.3572158,4.3545209 9.6413827,4.66706 9.9736625,4.66706 c 0.3801535,0 0.6173885,-0.2198652 0.9437205,-0.8746296 0.411315,-0.8252764 1.036361,-1.6379727 1.556456,-2.0237368 1.971542,-1.46232853 4.944298,-0.6664606 5.996451,1.6053729 0.381516,0.8237741 0.487546,1.5539961 0.365447,2.5167851 -0.311802,2.4586314 -1.833874,5.1615924 -4.775187,8.4799904 -1.058798,1.194541 -3.984228,4.273226 -4.060506,4.273226 -0.035,0 -0.7942646,-0.771184 -1.6872532,-1.713742 z"
     id="path312" />
</svg>
