<?xml version="1.0" encoding="UTF-8"?>
<svg width="22px" height="22px" viewBox="0 0 22 22" version="1.1" xmlns="http://www.w3.org/2000/svg" xmlns:xlink="http://www.w3.org/1999/xlink">
    <title>select</title>
    <g id="Podcasts" stroke="none" stroke-width="1" fill="none" fill-rule="evenodd" fill-opacity="0.65">
        <g id="Détails-podcast_2" transform="translate(-292, -846)" fill="#144D93">
            <g id="Group-3" transform="translate(21, 821)">
                <g id="select" transform="translate(271, 25)">
                    <path d="M10.999986,3.01589066 C11.4362196,2.3105161 11.9516939,1.64603762 12.5981202,1.12892916 C13.6305138,0.303066187 14.8035046,0 16.1150221,0 C17.6806189,0 19.169011,0.617492912 20.2757709,1.72421943 C21.3825308,2.830933 22,4.31932044 22,5.88485876 C22,8.87944829 20.3947657,11.6895935 18.6481016,14.0183976 C17.6240159,15.3838163 16.4867373,16.6724423 15.3202169,17.9172217 C14.1903275,19.1228563 13.0237898,20.2943065 11.8555353,21.4628322 L11.8555693,21.4628491 L11.5444472,21.773963 C11.5427148,21.7756953 11.5409657,21.7774276 11.5392277,21.7791392 L11.129609,21.9813163 L11.1359931,21.9877002 C10.8941775,22.0312922 10.63572,21.9591019 10.4513398,21.7697013 L10.4495565,21.7678672 C9.19674699,20.4809236 7.92576428,19.210975 6.69304745,17.904638 C5.52285614,16.6645473 4.37554412,15.3832414 3.35188123,14.018379 C1.60521713,11.6895404 0,8.87942975 0,5.88484021 C0,4.31930189 0.617473522,2.83093171 1.72422914,1.72420088 C2.83098908,0.617470051 4.31939841,0 5.8849779,0 C7.19647818,0 8.36947332,0.303047337 9.40184536,1.12891061 C10.0482717,1.64603633 10.5637459,2.31049755 10.9999817,3.0158747 L10.999986,3.01589066 Z M10.1994566,4.72683204 C9.75598913,3.86500328 9.19131402,2.92838312 8.44219402,2.32911582 C7.69276775,1.72961128 6.8319861,1.53998643 5.88498005,1.53998643 C4.72841107,1.53998643 3.63072262,1.99549842 2.81312434,2.81309245 C1.99551312,3.63066492 1.53998483,4.72832881 1.53998483,5.88486738 C1.53998483,8.50985649 3.05466825,11.0598342 4.58181364,13.0959687 C5.54157066,14.3756097 6.6077095,15.585204 7.69904834,16.7535788 C8.77501786,17.9054976 9.88591884,19.0252379 10.9999817,20.1404404 C12.1140445,19.0252379 13.2249628,17.9054976 14.300915,16.7535788 C15.3922539,15.585204 16.4584057,14.375614 17.4181627,13.0959687 C18.9453253,11.059804 20.4600087,8.50983492 20.4600087,5.88486738 C20.4600087,4.72832881 20.0044848,3.63066923 19.1868692,2.81309245 C18.3692753,1.99551999 17.2715825,1.53998643 16.1150135,1.53998643 C15.1680118,1.53998643 14.3071956,1.72961128 13.557765,2.32911582 C12.7263288,2.99424131 12.1377607,3.94381917 11.70905,4.90577239 C11.6342092,5.07372632 11.5097232,5.21215017 11.3443142,5.29483524 C10.9641401,5.48491731 10.5013132,5.33063712 10.3112606,4.95045141 L10.199448,4.72682772 L10.1994566,4.72683204 Z" id="path398"></path>
                </g>
            </g>
        </g>
    </g>
</svg>