<?xml version="1.0" encoding="UTF-8" standalone="no"?>
<svg
   width="21.999998"
   height="22.003536"
   viewBox="0 0 21.999998 22.003536"
   version="1.1"
   id="svg2956"
   sodipodi:docname="tab_bar_icon_home_unselected.svg"
   inkscape:export-filename="tab_bar_icon_home_selected.svg"
   inkscape:export-xdpi="96"
   inkscape:export-ydpi="96"
   inkscape:version="1.2.2 (b0a8486, 2022-12-01)"
   xmlns:inkscape="http://www.inkscape.org/namespaces/inkscape"
   xmlns:sodipodi="http://sodipodi.sourceforge.net/DTD/sodipodi-0.dtd"
   xmlns="http://www.w3.org/2000/svg"
   xmlns:svg="http://www.w3.org/2000/svg">
  <defs
     id="defs2960" />
  <sodipodi:namedview
     id="namedview2958"
     pagecolor="#ffffff"
     bordercolor="#000000"
     borderopacity="0.25"
     inkscape:showpageshadow="2"
     inkscape:pageopacity="0.0"
     inkscape:pagecheckerboard="0"
     inkscape:deskcolor="#d1d1d1"
     showgrid="false"
     inkscape:zoom="10.725549"
     inkscape:cx="11.001768"
     inkscape:cy="11.281474"
     inkscape:window-width="1440"
     inkscape:window-height="650"
     inkscape:window-x="0"
     inkscape:window-y="25"
     inkscape:window-maximized="0"
     inkscape:current-layer="svg2956" />
  <title
     id="title2950">path4</title>
  <g
     id="Podcasts"
     stroke="none"
     stroke-width="1"
     fill="none"
     fill-rule="evenodd"
     fill-opacity="0.646612"
     transform="matrix(0.95667642,0,0,0.95667642,0.47499826,0.4783161)">
    <g
       id="Détails-podcast_2"
       transform="translate(-63,-846)"
       fill="#144d93"
       fill-rule="nonzero">
      <g
         id="Group-3"
         transform="translate(21,821)">
        <path
           d="m 63.812761,35.518351 -1.947792,-2.065045 v 0 l -8.385181,-8.280829 c -0.03045,-0.02329 -0.0628,-0.04401 -0.0967,-0.06195 -0.04049,-0.03236 -0.08451,-0.06007 -0.131233,-0.0826 -0.03678,-0.0029 -0.07373,-0.0029 -0.110514,0 -0.09548,-0.03723 -0.201527,-0.03723 -0.297003,0 -0.03678,-0.0029 -0.07373,-0.0029 -0.110514,0 -0.04672,0.02253 -0.09074,0.05024 -0.131233,0.0826 -0.0339,0.01794 -0.06625,0.03866 -0.0967,0.06195 l -8.378273,8.260179 v 0 0 l -1.933979,2.065045 c -0.264877,0.273755 -0.257035,0.709637 0.01752,0.973753 0.274555,0.264116 0.711934,0.256529 0.977099,-0.01695 l 0.739056,-0.791601 V 46.311652 C 43.927313,46.691816 44.236553,47 44.61802,47 h 6.306153 c 0.381466,0 0.690706,-0.308184 0.690706,-0.688348 v -7.571831 h 2.762827 v 7.571831 c 0,0.182561 0.07277,0.357645 0.202304,0.486736 C 54.709542,46.927478 54.885227,47 55.068414,47 h 6.306153 c 0.381466,0 0.690707,-0.308184 0.690707,-0.688348 V 35.669788 l 0.739056,0.791601 c 0.169034,0.179524 0.421332,0.25554 0.661854,0.199413 0.240522,-0.05613 0.432728,-0.235868 0.504216,-0.471519 0.07149,-0.23565 0.0114,-0.491408 -0.157639,-0.670932 z m -8.05364,10.104952 v -7.571831 c -10e-7,-0.380164 -0.309241,-0.688347 -0.690707,-0.688347 h -4.144241 c -0.381467,0 -0.690707,0.308183 -0.690707,0.688347 v 7.571831 H 45.308727 V 34.210489 l 7.687566,-7.578713 7.687567,7.57183 v 11.419697 z"
           id="path4"
           style="fill:#144d93;fill-opacity:1;stroke:#648ab6;stroke-opacity:0" />
      </g>
    </g>
  </g>
</svg>
