<?xml version="1.0" encoding="UTF-8"?>
<svg width="28.2500324px" height="34.5760599px" viewBox="0 0 28.2500324 34.5760599" version="1.1" xmlns="http://www.w3.org/2000/svg" xmlns:xlink="http://www.w3.org/1999/xlink">
    <title>Triangle</title>
    <g id="Homepage" stroke="none" stroke-width="1" fill="none" fill-rule="evenodd">
        <g id="Homepage_V1" transform="translate(-71.913, -274.7121)" fill="#F9F9F9" stroke="#144D93" stroke-width="2">
            <g id="Group-2" transform="translate(35, 241)">
                <path d="M51.6919844,38.7749675 C51.9415754,38.7183935 52.2127485,38.7570353 52.4463444,38.9043023 L68.0468689,63.4666991 C68.1941359,63.700295 68.2327777,63.9714681 68.1762037,64.221059 C68.1196298,64.4706499 67.9678401,64.6986586 67.7342442,64.8459256 C67.5745799,64.9465835 67.3896884,65 67.2009433,65 L36.6251437,65 C36.3490013,65 36.0990013,64.8880712 35.9180369,64.7071068 C35.7370725,64.5261424 35.6251437,64.2761424 35.6251437,64 C35.6251437,63.8112549 35.6785601,63.6263634 35.7792181,63.4666991 L51.0671179,39.216927 C51.2143849,38.9833311 51.4423935,38.8315414 51.6919844,38.7749675 Z" id="Triangle" transform="translate(51.913, 51) rotate(90) translate(-51.913, -51)"></path>
            </g>
        </g>
    </g>
</svg>